<?xml version="1.0" encoding="UTF-8" standalone="no"?>
<svg
   version="1.1"
   viewBox="0 0 468.98264 465.4517"
   id="svg68"
   sodipodi:docname="makina-agences.svg"
   width="468.98267"
   height="465.45169"
   inkscape:version="1.2.2 (b0a8486541, 2022-12-01)"
   xmlns:inkscape="http://www.inkscape.org/namespaces/inkscape"
   xmlns:sodipodi="http://sodipodi.sourceforge.net/DTD/sodipodi-0.dtd"
   xmlns="http://www.w3.org/2000/svg"
   xmlns:svg="http://www.w3.org/2000/svg">
  <defs
     id="defs72" />
  <sodipodi:namedview
     id="namedview70"
     pagecolor="#ffffff"
     bordercolor="#000000"
     borderopacity="0.25"
     inkscape:showpageshadow="2"
     inkscape:pageopacity="0.0"
     inkscape:pagecheckerboard="0"
     inkscape:deskcolor="#d1d1d1"
     showgrid="false"
     inkscape:zoom="0.46303564"
     inkscape:cx="298.03321"
     inkscape:cy="211.64678"
     inkscape:window-width="1854"
     inkscape:window-height="1011"
     inkscape:window-x="0"
     inkscape:window-y="0"
     inkscape:window-maximized="1"
     inkscape:current-layer="text54" />
  <g
     transform="matrix(3.7795,0,0,3.7795,-182.42928,-116.05711)"
     id="g44">
    <path
       d="m 117.56,30.707 c -0.84667,0 -8.255,1.3467 -8.255,1.3467 -0.34396,11.009 -8.0433,20.764 -23.892,22.458 l -3.3867,-6.1039 -6.641,0.65617 2.9898,15.899 -30.107,-1.2965 3.2279,10.98 c 32.435,10.451 30.954,40.349 23.889,67.072 12.435,14.023 37.518,12.647 49.212,11.404 0.82021,-16.457 13.864,-17.066 35.957,-8.5196 2.9898,-4.6567 4.9742,-9.525 11.8,-13.414 l -12.33,-36.909 -7.276,1.6404 c 2.9104,-5.5827 8.5196,-13.203 13.335,-16.775 l 4.1275,-22.992 c -23.442,-1.6669 -38.735,-12.266 -52.652,-25.445 z"
       fill="#221157"
       stroke-width="0.26458"
       id="path2" />
    <g
       class="agence-pointer"
       transform="matrix(0.19987,0,0,0.19987,-302.03,-1292.9)"
       data-html="true"
       data-slide-to="0"
       data-target="#liste-agences-contact"
       data-toggle="tooltip"
       title=""
       id="g10">
      <ellipse
         transform="translate(2023,7135.9)"
         cx="17.5"
         cy="10"
         rx="17.5"
         ry="10"
         fill="#50af55"
         id="ellipse4" />
      <path
         d="m 2063.7,7103.6 c 0,13.021 -23.335,43.578 -23.335,43.578 0,0 -23.336,-30.558 -23.336,-43.578 a 23.337,23.337 0 1 1 46.671,0 z"
         fill="#f85446"
         id="path6" />
      <ellipse
         transform="translate(2029,7092.9)"
         cx="11.5"
         cy="12"
         rx="11.5"
         ry="12"
         fill="#ffffff"
         id="ellipse8" />
    </g>
    <g
       class="agence-pointer"
       transform="matrix(0.19987,0,0,0.19987,-295.81,-1370.5)"
       data-html="true"
       data-slide-to="1"
       data-target="#liste-agences-contact"
       data-toggle="tooltip"
       title=""
       id="g18">
      <ellipse
         transform="translate(2023,7135.9)"
         cx="17.5"
         cy="10"
         rx="17.5"
         ry="10"
         fill="#50af55"
         id="ellipse12" />
      <path
         d="m 2063.7,7103.6 c 0,13.021 -23.335,43.578 -23.335,43.578 0,0 -23.336,-30.558 -23.336,-43.578 a 23.337,23.337 0 1 1 46.671,0 z"
         fill="#f85446"
         id="path14" />
      <ellipse
         transform="translate(2029,7092.9)"
         cx="11.5"
         cy="12"
         rx="11.5"
         ry="12"
         fill="#ffffff"
         id="ellipse16" />
    </g>
    <g
       class="agence-pointer"
       transform="matrix(0.19987,0,0,0.19987,-332.11,-1346)"
       data-html="true"
       data-slide-to="2"
       data-target="#liste-agences-contact"
       data-toggle="tooltip"
       title=""
       id="g26">
      <ellipse
         transform="translate(2023,7135.9)"
         cx="17.5"
         cy="10"
         rx="17.5"
         ry="10"
         fill="#50af55"
         id="ellipse20" />
      <path
         d="m 2063.7,7103.6 c 0,13.021 -23.335,43.578 -23.335,43.578 0,0 -23.336,-30.558 -23.336,-43.578 a 23.337,23.337 0 1 1 46.671,0 z"
         fill="#f85446"
         id="path22" />
      <ellipse
         transform="translate(2029,7092.9)"
         cx="11.5"
         cy="12"
         rx="11.5"
         ry="12"
         fill="#ffffff"
         id="ellipse24" />
    </g>
    <g
       class="agence-pointer"
       transform="matrix(0.19987,0,0,0.19987,-302.03,-1292.9)"
       data-html="true"
       data-slide-to="3"
       data-target="#liste-agences-contact"
       data-toggle="tooltip"
       title=""
       id="g34">
      <ellipse
         transform="translate(2023,7135.9)"
         cx="17.5"
         cy="10"
         rx="17.5"
         ry="10"
         fill="#50af55"
         id="ellipse28" />
      <path
         d="m 2063.7,7103.6 c 0,13.021 -23.335,43.578 -23.335,43.578 0,0 -23.336,-30.558 -23.336,-43.578 a 23.337,23.337 0 1 1 46.671,0 z"
         fill="#f85446"
         id="path30" />
      <ellipse
         transform="translate(2029,7092.9)"
         cx="11.5"
         cy="12"
         rx="11.5"
         ry="12"
         fill="#ffffff"
         id="ellipse32" />
    </g>
  </g>
  <g
     transform="matrix(3.7795,0,0,3.7795,-266.67094,-61.38286)"
     fill="#ffffff"
     font-family="sans-serif"
     font-size="10.583px"
     stroke-width="0.26458"
     id="g64">
    <g
       aria-label="Paris"
       id="text54"
       style="font-weight:600;line-height:1.25;font-family:'Fira Code';-inkscape-font-specification:'Fira Code Semi-Bold'">
      <path
         d="m 145.41485,48.066025 q 0,1.264533 -0.79237,1.888659 -0.79237,0.624126 -2.16002,0.624126 h -0.86292 v 2.599619 h -1.48705 v -7.50579 h 2.20887 q 1.48704,0 2.29027,0.602417 0.80322,0.59699 0.80322,1.790969 z m -1.54132,0.01085 q 0,-1.318805 -1.4979,-1.318805 h -0.77609 v 2.719017 h 0.81951 q 1.45448,0 1.45448,-1.400212 z"
         style="font-size:10.583px"
         id="path413" />
      <path
         d="m 151.20565,51.664246 q 0,0.320203 0.0923,0.477591 0.0977,0.151961 0.3202,0.227942 l -0.30935,0.960611 q -0.47759,-0.04885 -0.79779,-0.233369 -0.31478,-0.189951 -0.48302,-0.542718 -0.31478,0.38533 -0.80865,0.586135 -0.49388,0.200806 -1.05288,0.200806 -0.57528,0 -1.00945,-0.222514 -0.43418,-0.227942 -0.66754,-0.63498 -0.23337,-0.407039 -0.23337,-0.938902 0,-0.607845 0.3202,-1.036592 0.3202,-0.428747 0.9389,-0.651261 0.6187,-0.222515 1.4979,-0.222515 h 0.80323 v -0.309349 q 0,-0.4993 -0.30935,-0.732669 -0.30935,-0.238796 -0.91177,-0.238796 -0.29307,0 -0.71096,0.08141 -0.41789,0.07598 -0.83579,0.217087 l -0.34191,-0.98232 q 0.52644,-0.195378 1.08001,-0.298495 0.559,-0.103116 1.03659,-0.103116 1.18855,0 1.78554,0.510155 0.59699,0.504728 0.59699,1.454484 z m -2.57248,0.640407 q 0.33649,0 0.66212,-0.184524 0.33105,-0.189952 0.52101,-0.515582 v -1.117999 h -0.56443 q -0.78151,0 -1.14514,0.24965 -0.36362,0.244223 -0.36362,0.727242 0,0.407038 0.22795,0.624126 0.22794,0.217087 0.66211,0.217087 z"
         style="font-size:10.583px"
         id="path415" />
      <path
         d="m 157.3438,47.273657 q 0.2605,0 0.47216,0.04342 0.21709,0.03799 0.42875,0.11397 l -0.25508,2.241426 h -0.95518 v -1.123427 q -0.54815,0.04342 -0.96061,0.493874 -0.40704,0.450456 -0.64584,1.221115 v 1.921222 h 1.14514 v 0.993174 h -3.38656 v -0.993174 h 0.80865 v -3.766463 h -0.80865 v -0.987747 h 1.89951 l 0.26593,1.318805 q 0.32021,-0.743523 0.7978,-1.107145 0.48302,-0.369048 1.19398,-0.369048 z"
         style="font-size:10.583px"
         id="path417" />
      <path
         d="m 162.02203,44.532932 q 0.26051,0 0.46131,0.11397 0.20081,0.108544 0.31478,0.303922 0.11397,0.195379 0.11397,0.434175 0,0.238796 -0.11397,0.434174 -0.11397,0.195379 -0.31478,0.309349 -0.2008,0.113971 -0.46131,0.113971 -0.2605,0 -0.46673,-0.113971 -0.20081,-0.11397 -0.31478,-0.309349 -0.11397,-0.195378 -0.11397,-0.434174 0,-0.238796 0.11397,-0.434175 0.11397,-0.195378 0.31478,-0.303922 0.20623,-0.11397 0.46673,-0.11397 z m -2.13288,2.898113 h 3.06093 v 4.732501 h 1.51418 v 1.014883 h -4.62938 v -1.014883 h 1.68243 v -3.717618 h -1.62816 z"
         style="font-size:10.583px"
         id="path419" />
      <path
         d="m 168.3447,52.282944 q 0.51558,0 0.81408,-0.17367 0.30392,-0.179097 0.30392,-0.4993 0,-0.222515 -0.10312,-0.363621 -0.10311,-0.141107 -0.39618,-0.265932 -0.28764,-0.130252 -0.87378,-0.287641 -0.59699,-0.151961 -0.9986,-0.358193 -0.40161,-0.21166 -0.62412,-0.542718 -0.22252,-0.336486 -0.22252,-0.824932 0,-0.4993 0.28222,-0.88463 0.28764,-0.38533 0.82493,-0.59699 0.54271,-0.217087 1.28081,-0.217087 1.31338,0 2.24143,0.67297 l -0.58614,0.873776 q -0.78694,-0.4993 -1.62273,-0.4993 -0.96603,0 -0.96603,0.553572 0,0.189951 0.11397,0.314776 0.1194,0.124826 0.40704,0.238796 0.29306,0.113971 0.89548,0.282214 0.6187,0.173669 1.00946,0.379902 0.39618,0.206233 0.61327,0.548145 0.22251,0.341913 0.22251,0.873776 0,0.59699 -0.35819,1.014883 -0.35277,0.412466 -0.94433,0.618698 -0.59156,0.200806 -1.30795,0.200806 -0.78152,0 -1.39479,-0.222514 -0.61327,-0.222515 -1.0583,-0.613272 l 0.74353,-0.835785 q 0.35276,0.282213 0.78694,0.450456 0.43417,0.162815 0.91719,0.162815 z"
         style="font-size:10.583px"
         id="path421" />
    </g>
    <g
       aria-label="Nantes"
       id="text58"
       style="font-weight:600;line-height:1.25;font-family:'Fira Code';-inkscape-font-specification:'Fira Code Semi-Bold'">
      <path
         d="m 105.93314,69.467593 q 0.22251,1.69328 0.22251,3.077211 v 3.158619 h -1.29166 v -7.50579 h 1.88865 l 2.18716,6.224975 q -0.22252,-1.514183 -0.22252,-3.03922 v -3.185755 h 1.29167 v 7.50579 H 108.142 Z"
         style="font-size:10.583px"
         id="path424" />
      <path
         d="m 116.15252,74.189239 q 0,0.320204 0.0923,0.477592 0.0977,0.151961 0.3202,0.227942 l -0.30935,0.960611 q -0.47759,-0.04885 -0.7978,-0.233369 -0.31477,-0.189951 -0.48301,-0.542718 -0.31478,0.38533 -0.80865,0.586135 -0.49388,0.200806 -1.05288,0.200806 -0.57528,0 -1.00945,-0.222514 -0.43418,-0.227942 -0.66755,-0.63498 -0.23336,-0.407039 -0.23336,-0.938903 0,-0.607844 0.3202,-1.036591 0.3202,-0.428747 0.9389,-0.651261 0.6187,-0.222515 1.4979,-0.222515 h 0.80323 v -0.309349 q 0,-0.4993 -0.30935,-0.732669 -0.30935,-0.238796 -0.91177,-0.238796 -0.29307,0 -0.71096,0.08141 -0.41789,0.07598 -0.83579,0.217087 l -0.34191,-0.98232 q 0.52644,-0.195378 1.08001,-0.298495 0.559,-0.103116 1.03659,-0.103116 1.18855,0 1.78554,0.510155 0.59699,0.504728 0.59699,1.454484 z m -2.57248,0.640408 q 0.33649,0 0.66212,-0.184524 0.33105,-0.189952 0.52101,-0.515583 v -1.117999 h -0.56443 q -0.78152,0 -1.14514,0.249651 -0.36362,0.244223 -0.36362,0.727242 0,0.407038 0.22794,0.624125 0.22795,0.217088 0.66212,0.217088 z"
         style="font-size:10.583px"
         id="path426" />
      <path
         d="m 118.07918,75.703423 v -5.747384 h 1.24825 l 0.10311,0.710961 q 0.36905,-0.434174 0.83036,-0.651262 0.46131,-0.222514 0.99318,-0.222514 0.77066,0 1.17769,0.445029 0.41247,0.445028 0.41247,1.259105 v 4.206065 h -1.43278 v -3.647065 q 0,-0.455883 -0.0597,-0.705533 -0.0543,-0.255078 -0.20624,-0.369049 -0.14653,-0.119398 -0.43417,-0.119398 -0.62955,0 -1.19941,0.765233 v 4.075812 z"
         style="font-size:10.583px"
         id="path428" />
      <path
         d="m 129.55224,75.383219 q -0.33649,0.222514 -0.7978,0.352767 -0.45588,0.130252 -0.96603,0.130252 -0.68926,0 -1.16685,-0.244223 -0.47216,-0.244223 -0.71096,-0.689252 -0.23879,-0.450456 -0.23879,-1.063727 v -2.898114 h -1.24826 v -1.014883 h 1.24826 v -1.264532 l 1.43277,-0.17367 v 1.438202 h 1.89951 l -0.14653,1.014883 h -1.75298 v 2.892687 q 0,0.450456 0.21709,0.656688 0.21709,0.200806 0.7001,0.200806 0.55358,0 1.0366,-0.260505 z"
         style="font-size:10.583px"
         id="path430" />
      <path
         d="m 132.32553,73.266619 q 0.0597,0.776087 0.45588,1.150562 0.40162,0.374475 1.02574,0.374475 0.39619,0 0.75981,-0.124825 0.36362,-0.124825 0.73267,-0.369048 l 0.59699,0.819504 q -0.4179,0.352767 -0.9769,0.553572 -0.559,0.195379 -1.20483,0.195379 -0.91719,0 -1.56303,-0.379903 -0.64041,-0.379902 -0.97146,-1.063727 -0.32563,-0.683824 -0.32563,-1.584736 0,-0.862922 0.3202,-1.552174 0.32563,-0.694679 0.93347,-1.090863 0.61328,-0.401611 1.44363,-0.401611 0.78152,0 1.36223,0.347339 0.5807,0.34734 0.89548,1.004029 0.31478,0.651261 0.31478,1.552173 0,0.309349 -0.0271,0.569854 z m 1.23197,-2.46394 q -0.53729,0 -0.86835,0.38533 -0.32563,0.379903 -0.3799,1.161417 h 2.42052 q -0.0109,-0.743524 -0.30935,-1.145135 -0.29306,-0.401612 -0.86292,-0.401612 z"
         style="font-size:10.583px"
         id="path432" />
      <path
         d="m 139.80419,74.807938 q 0.51558,0 0.81408,-0.17367 0.30392,-0.179097 0.30392,-0.4993 0,-0.222515 -0.10312,-0.363621 -0.10312,-0.141107 -0.39618,-0.265932 -0.28764,-0.130252 -0.87378,-0.287641 -0.59699,-0.151961 -0.9986,-0.358194 -0.40161,-0.21166 -0.62413,-0.542718 -0.22251,-0.336485 -0.22251,-0.824931 0,-0.4993 0.28221,-0.88463 0.28764,-0.38533 0.82493,-0.59699 0.54272,-0.217087 1.28082,-0.217087 1.31338,0 2.24142,0.67297 l -0.58613,0.873776 q -0.78694,-0.4993 -1.62273,-0.4993 -0.96604,0 -0.96604,0.553572 0,0.189951 0.11398,0.314776 0.11939,0.124826 0.40703,0.238796 0.29307,0.113971 0.89549,0.282214 0.6187,0.173669 1.00945,0.379902 0.39619,0.206233 0.61327,0.548145 0.22252,0.341913 0.22252,0.873776 0,0.59699 -0.35819,1.014883 -0.35277,0.412465 -0.94433,0.618698 -0.59157,0.200806 -1.30795,0.200806 -0.78152,0 -1.39479,-0.222514 -0.61327,-0.222515 -1.0583,-0.613272 l 0.74352,-0.835785 q 0.35277,0.282213 0.78695,0.450456 0.43417,0.162815 0.91719,0.162815 z"
         style="font-size:10.583px"
         id="path434" />
    </g>
    <g
       aria-label="Toulouse"
       id="text62"
       style="font-weight:600;line-height:1.25;font-family:'Fira Code';-inkscape-font-specification:'Fira Code Semi-Bold'">
      <path
         d="m 141.01613,100.1241 h -2.10575 v 6.33894 h -1.48162 v -6.33894 h -2.19258 v -1.166846 h 5.93191 z"
         style="font-size:10.583px"
         id="path437" />
      <path
         d="m 144.70119,100.55284 q 0.84664,0 1.44906,0.37448 0.60241,0.36905 0.91176,1.05287 0.31478,0.6784 0.31478,1.59559 0,0.93348 -0.31478,1.62273 -0.31477,0.68382 -0.92262,1.0583 -0.60242,0.36905 -1.44363,0.36905 -0.84664,0 -1.44906,-0.36362 -0.60241,-0.36362 -0.91719,-1.04745 -0.31477,-0.68382 -0.31477,-1.62815 0,-0.90091 0.31477,-1.58474 0.32021,-0.68925 0.92262,-1.06915 0.60785,-0.37991 1.44906,-0.37991 z m 0,1.08001 q -0.60785,0 -0.90091,0.4776 -0.29307,0.47216 -0.29307,1.47619 0,1.01488 0.29307,1.48705 0.29306,0.47216 0.89548,0.47216 0.60242,0 0.89549,-0.47216 0.29306,-0.4776 0.29306,-1.49791 0,-0.99317 -0.29306,-1.46533 -0.29307,-0.4776 -0.89006,-0.4776 z"
         style="font-size:10.583px"
         id="path439" />
      <path
         d="m 150.25863,104.69921 q 0,0.45588 0.17909,0.65126 0.1791,0.19538 0.54272,0.19538 0.33106,0 0.65126,-0.20081 0.32563,-0.2008 0.52644,-0.52101 v -4.10837 h 1.43277 v 5.74738 h -1.24825 l -0.076,-0.70553 q -0.30392,0.41789 -0.78151,0.64583 -0.47759,0.22252 -1.00946,0.22252 -0.8195,0 -1.23739,-0.46131 -0.41247,-0.46131 -0.41247,-1.29167 v -4.15722 h 1.43278 z"
         style="font-size:10.583px"
         id="path441" />
      <path
         d="m 158.07377,104.79147 q 0,0.68925 0.81408,0.68925 0.41246,0 0.86292,-0.17909 l 0.35276,0.97689 q -0.67297,0.34734 -1.5576,0.34734 -0.92804,0 -1.41649,-0.52644 -0.48845,-0.52643 -0.48845,-1.45991 v -5.204664 h -1.72041 v -1.014883 h 3.15319 z"
         style="font-size:10.583px"
         id="path443" />
      <path
         d="m 164.23905,100.55284 q 0.84664,0 1.44906,0.37448 0.60241,0.36905 0.91176,1.05287 0.31478,0.6784 0.31478,1.59559 0,0.93348 -0.31478,1.62273 -0.31477,0.68382 -0.92262,1.0583 -0.60242,0.36905 -1.44363,0.36905 -0.84664,0 -1.44906,-0.36362 -0.60241,-0.36362 -0.91719,-1.04745 -0.31477,-0.68382 -0.31477,-1.62815 0,-0.90091 0.31477,-1.58474 0.32021,-0.68925 0.92262,-1.06915 0.60785,-0.37991 1.44906,-0.37991 z m 0,1.08001 q -0.60785,0 -0.90091,0.4776 -0.29307,0.47216 -0.29307,1.47619 0,1.01488 0.29307,1.48705 0.29306,0.47216 0.89548,0.47216 0.60242,0 0.89549,-0.47216 0.29306,-0.4776 0.29306,-1.49791 0,-0.99317 -0.29306,-1.46533 -0.29307,-0.4776 -0.89006,-0.4776 z"
         style="font-size:10.583px"
         id="path445" />
      <path
         d="m 169.79648,104.69921 q 0,0.45588 0.1791,0.65126 0.1791,0.19538 0.54272,0.19538 0.33106,0 0.65126,-0.20081 0.32563,-0.2008 0.52644,-0.52101 v -4.10837 h 1.43277 v 5.74738 h -1.24825 l -0.076,-0.70553 q -0.30392,0.41789 -0.78151,0.64583 -0.47759,0.22252 -1.00946,0.22252 -0.8195,0 -1.2374,-0.46131 -0.41246,-0.46131 -0.41246,-1.29167 v -4.15722 h 1.43277 z"
         style="font-size:10.583px"
         id="path447" />
      <path
         d="m 177.06349,105.56756 q 0.51558,0 0.81407,-0.17367 0.30392,-0.1791 0.30392,-0.4993 0,-0.22252 -0.10311,-0.36362 -0.10312,-0.14111 -0.39619,-0.26593 -0.28764,-0.13026 -0.87377,-0.28765 -0.59699,-0.15196 -0.9986,-0.35819 -0.40161,-0.21166 -0.62413,-0.54272 -0.22251,-0.33648 -0.22251,-0.82493 0,-0.4993 0.28221,-0.88463 0.28764,-0.38533 0.82493,-0.59699 0.54272,-0.21709 1.28082,-0.21709 1.31337,0 2.24142,0.67297 l -0.58613,0.87378 q -0.78695,-0.4993 -1.62273,-0.4993 -0.96604,0 -0.96604,0.55357 0,0.18995 0.11397,0.31478 0.1194,0.12482 0.40704,0.23879 0.29307,0.11398 0.89548,0.28222 0.6187,0.17367 1.00946,0.3799 0.39618,0.20623 0.61327,0.54815 0.22252,0.34191 0.22252,0.87377 0,0.59699 -0.3582,1.01488 -0.35276,0.41247 -0.94433,0.6187 -0.59156,0.20081 -1.30795,0.20081 -0.78151,0 -1.39478,-0.22252 -0.61327,-0.22251 -1.0583,-0.61327 l 0.74352,-0.83578 q 0.35277,0.28221 0.78694,0.45045 0.43418,0.16282 0.9172,0.16282 z"
         style="font-size:10.583px"
         id="path449" />
      <path
         d="m 182.61007,104.02624 q 0.0597,0.77609 0.45588,1.15056 0.40161,0.37448 1.02574,0.37448 0.39618,0 0.7598,-0.12483 0.36362,-0.12482 0.73267,-0.36905 l 0.59699,0.81951 q -0.41789,0.35276 -0.97689,0.55357 -0.559,0.19538 -1.20484,0.19538 -0.91719,0 -1.56302,-0.3799 -0.64041,-0.37991 -0.97147,-1.06373 -0.32563,-0.68383 -0.32563,-1.58474 0,-0.86292 0.3202,-1.55217 0.32563,-0.69468 0.93348,-1.09086 0.61327,-0.40162 1.44363,-0.40162 0.78151,0 1.36222,0.34734 0.58071,0.34734 0.89549,1.00403 0.31477,0.65126 0.31477,1.55218 0,0.30934 -0.0271,0.56985 z m 1.23197,-2.46394 q -0.53729,0 -0.86835,0.38533 -0.32563,0.3799 -0.37991,1.16142 h 2.42053 q -0.0109,-0.74353 -0.30935,-1.14514 -0.29307,-0.40161 -0.86292,-0.40161 z"
         style="font-size:10.583px"
         id="path451" />
    </g>
  </g>
</svg>
