<?xml version="1.0" encoding="utf-8"?>
<svg version="1.1" xmlns="http://www.w3.org/2000/svg" xmlns:xlink="http://www.w3.org/1999/xlink" width="600" height="600" viewBox="0 0 1000 1000" enable-background="new 0 0 600 600" xml:space="preserve"><g transform="translate(0,0) scale(1.6666667,1.6666667)"><svg width="600" height="600" viewBox="0 0 820 820" enable-background="new 0 0 600 600" xml:space="preserve"><rect x="0" y="0" width="820" height="820" fill="rgb(255,255,255)" opacity="1.0" /><polygon points="240,80 260,80 260,100 250,100" fill="rgb(0,0,0)" opacity="1.0" /><polygon points="260,80 270,80 280,100 260,100" fill="rgb(0,0,0)" opacity="1.0" /><rect x="300" y="80" width="20" height="20" fill="rgb(0,0,0)" opacity="1.0" /><rect x="340" y="80" width="20" height="20" fill="rgb(0,0,0)" opacity="1.0" /><rect x="360" y="80" width="20" height="20" fill="rgb(0,0,0)" opacity="1.0" /><polygon points="380,80 390,80 400,100 380,100" fill="rgb(0,0,0)" opacity="1.0" /><polygon points="440,80 460,80 460,100 450,100" fill="rgb(0,0,0)" opacity="1.0" /><polygon points="460,80 470,80 480,100 460,100" fill="rgb(0,0,0)" opacity="1.0" /><rect x="520" y="80" width="20" height="20" fill="rgb(0,0,0)" opacity="1.0" /><rect x="540" y="80" width="20" height="20" fill="rgb(0,0,0)" opacity="1.0" /><polygon points="280,110 300,100 300,120 280,120" fill="rgb(0,0,0)" opacity="1.0" /><rect x="340" y="100" width="20" height="20" fill="rgb(0,0,0)" opacity="1.0" /><rect x="360" y="100" width="20" height="20" fill="rgb(0,0,0)" opacity="1.0" /><rect x="420" y="100" width="20" height="20" fill="rgb(0,0,0)" opacity="1.0" /><rect x="480" y="100" width="20" height="20" fill="rgb(0,0,0)" opacity="1.0" /><rect x="500" y="100" width="20" height="20" fill="rgb(0,0,0)" opacity="1.0" /><rect x="520" y="100" width="20" height="20" fill="rgb(0,0,0)" opacity="1.0" /><rect x="540" y="100" width="20" height="20" fill="rgb(0,0,0)" opacity="1.0" /><rect x="560" y="100" width="20" height="20" fill="rgb(0,0,0)" opacity="1.0" /><rect x="280" y="120" width="20" height="20" fill="rgb(0,0,0)" opacity="1.0" /><rect x="320" y="120" width="20" height="20" fill="rgb(0,0,0)" opacity="1.0" /><polygon points="360,120 380,120 380,130 360,140" fill="rgb(0,0,0)" opacity="1.0" /><polygon points="460,120 480,120 480,140 470,140" fill="rgb(0,0,0)" opacity="1.0" /><rect x="480" y="120" width="20" height="20" fill="rgb(0,0,0)" opacity="1.0" /><polygon points="520,120 540,120 540,130 520,140" fill="rgb(0,0,0)" opacity="1.0" /><rect x="560" y="120" width="20" height="20" fill="rgb(0,0,0)" opacity="1.0" /><polygon points="240,150 260,140 260,160 240,160" fill="rgb(0,0,0)" opacity="1.0" /><rect x="280" y="140" width="20" height="20" fill="rgb(0,0,0)" opacity="1.0" /><rect x="300" y="140" width="20" height="20" fill="rgb(0,0,0)" opacity="1.0" /><polygon points="380,140 400,140 400,160 390,160" fill="rgb(0,0,0)" opacity="1.0" /><rect x="400" y="140" width="20" height="20" fill="rgb(0,0,0)" opacity="1.0" /><rect x="540" y="140" width="20" height="20" fill="rgb(0,0,0)" opacity="1.0" /><rect x="560" y="140" width="20" height="20" fill="rgb(0,0,0)" opacity="1.0" /><rect x="240" y="160" width="20" height="20" fill="rgb(0,0,0)" opacity="1.0" /><rect x="280" y="160" width="20" height="20" fill="rgb(0,0,0)" opacity="1.0" /><rect x="300" y="160" width="20" height="20" fill="rgb(0,0,0)" opacity="1.0" /><rect x="340" y="160" width="20" height="20" fill="rgb(0,0,0)" opacity="1.0" /><polygon points="400,160 420,160 420,170 400,180" fill="rgb(0,0,0)" opacity="1.0" /><rect x="540" y="160" width="20" height="20" fill="rgb(0,0,0)" opacity="1.0" /><rect x="240" y="180" width="20" height="20" fill="rgb(0,0,0)" opacity="1.0" /><rect x="260" y="180" width="20" height="20" fill="rgb(0,0,0)" opacity="1.0" /><rect x="280" y="180" width="20" height="20" fill="rgb(0,0,0)" opacity="1.0" /><rect x="300" y="180" width="20" height="20" fill="rgb(0,0,0)" opacity="1.0" /><rect x="320" y="180" width="20" height="20" fill="rgb(0,0,0)" opacity="1.0" /><rect x="360" y="180" width="20" height="20" fill="rgb(0,0,0)" opacity="1.0" /><polygon points="380,180 390,180 400,200 380,200" fill="rgb(0,0,0)" opacity="1.0" /><rect x="420" y="180" width="20" height="20" fill="rgb(0,0,0)" opacity="1.0" /><rect x="480" y="180" width="20" height="20" fill="rgb(0,0,0)" opacity="1.0" /><rect x="500" y="180" width="20" height="20" fill="rgb(0,0,0)" opacity="1.0" /><rect x="520" y="180" width="20" height="20" fill="rgb(0,0,0)" opacity="1.0" /><rect x="540" y="180" width="20" height="20" fill="rgb(0,0,0)" opacity="1.0" /><rect x="560" y="180" width="20" height="20" fill="rgb(0,0,0)" opacity="1.0" /><rect x="240" y="200" width="20" height="20" fill="rgb(0,0,0)" opacity="1.0" /><rect x="280" y="200" width="20" height="20" fill="rgb(0,0,0)" opacity="1.0" /><rect x="320" y="200" width="20" height="20" fill="rgb(0,0,0)" opacity="1.0" /><polygon points="360,200 380,200 380,210 360,220" fill="rgb(0,0,0)" opacity="1.0" /><rect x="400" y="200" width="20" height="20" fill="rgb(0,0,0)" opacity="1.0" /><rect x="440" y="200" width="20" height="20" fill="rgb(0,0,0)" opacity="1.0" /><rect x="480" y="200" width="20" height="20" fill="rgb(0,0,0)" opacity="1.0" /><rect x="520" y="200" width="20" height="20" fill="rgb(0,0,0)" opacity="1.0" /><rect x="560" y="200" width="20" height="20" fill="rgb(0,0,0)" opacity="1.0" /><rect x="240" y="220" width="20" height="20" fill="rgb(0,0,0)" opacity="1.0" /><rect x="280" y="220" width="20" height="20" fill="rgb(0,0,0)" opacity="1.0" /><rect x="300" y="220" width="20" height="20" fill="rgb(0,0,0)" opacity="1.0" /><rect x="320" y="220" width="20" height="20" fill="rgb(0,0,0)" opacity="1.0" /><polygon points="340,220 350,220 360,240 340,240" fill="rgb(0,0,0)" opacity="1.0" /><rect x="420" y="220" width="20" height="20" fill="rgb(0,0,0)" opacity="1.0" /><rect x="460" y="220" width="20" height="20" fill="rgb(0,0,0)" opacity="1.0" /><rect x="480" y="220" width="20" height="20" fill="rgb(0,0,0)" opacity="1.0" /><rect x="520" y="220" width="20" height="20" fill="rgb(0,0,0)" opacity="1.0" /><rect x="560" y="220" width="20" height="20" fill="rgb(0,0,0)" opacity="1.0" /><rect x="80" y="240" width="20" height="20" fill="rgb(0,0,0)" opacity="1.0" /><polygon points="160,250 180,240 180,260 160,260" fill="rgb(0,0,0)" opacity="1.0" /><polygon points="200,240 220,240 220,260 210,260" fill="rgb(0,0,0)" opacity="1.0" /><rect x="220" y="240" width="20" height="20" fill="rgb(0,0,0)" opacity="1.0" /><rect x="240" y="240" width="20" height="20" fill="rgb(0,0,0)" opacity="1.0" /><rect x="280" y="240" width="20" height="20" fill="rgb(0,0,0)" opacity="1.0" /><polygon points="320,240 340,240 340,250 320,260" fill="rgb(0,0,0)" opacity="1.0" /><polygon points="380,240 400,240 400,260 390,260" fill="rgb(0,0,0)" opacity="1.0" /><rect x="400" y="240" width="20" height="20" fill="rgb(0,0,0)" opacity="1.0" /><rect x="460" y="240" width="20" height="20" fill="rgb(0,0,0)" opacity="1.0" /><rect x="480" y="240" width="20" height="20" fill="rgb(0,0,0)" opacity="1.0" /><rect x="500" y="240" width="20" height="20" fill="rgb(0,0,0)" opacity="1.0" /><rect x="520" y="240" width="20" height="20" fill="rgb(0,0,0)" opacity="1.0" /><rect x="560" y="240" width="20" height="20" fill="rgb(0,0,0)" opacity="1.0" /><rect x="580" y="240" width="20" height="20" fill="rgb(0,0,0)" opacity="1.0" /><rect x="600" y="240" width="20" height="20" fill="rgb(0,0,0)" opacity="1.0" /><rect x="620" y="240" width="20" height="20" fill="rgb(0,0,0)" opacity="1.0" /><rect x="640" y="240" width="20" height="20" fill="rgb(0,0,0)" opacity="1.0" /><rect x="660" y="240" width="20" height="20" fill="rgb(0,0,0)" opacity="1.0" /><rect x="720" y="240" width="20" height="20" fill="rgb(0,0,0)" opacity="1.0" /><rect x="100" y="260" width="20" height="20" fill="rgb(0,0,0)" opacity="1.0" /><rect x="120" y="260" width="20" height="20" fill="rgb(0,0,0)" opacity="1.0" /><rect x="140" y="260" width="20" height="20" fill="rgb(0,0,0)" opacity="1.0" /><rect x="160" y="260" width="20" height="20" fill="rgb(0,0,0)" opacity="1.0" /><rect x="280" y="260" width="20" height="20" fill="rgb(0,0,0)" opacity="1.0" /><rect x="300" y="260" width="20" height="20" fill="rgb(0,0,0)" opacity="1.0" /><polygon points="360,270 380,260 380,280 360,280" fill="rgb(0,0,0)" opacity="1.0" /><polygon points="400,260 420,260 420,270 400,280" fill="rgb(0,0,0)" opacity="1.0" /><polygon points="460,260 480,260 480,270 460,280" fill="rgb(0,0,0)" opacity="1.0" /><rect x="520" y="260" width="20" height="20" fill="rgb(0,0,0)" opacity="1.0" /><rect x="580" y="260" width="20" height="20" fill="rgb(0,0,0)" opacity="1.0" /><rect x="640" y="260" width="20" height="20" fill="rgb(0,0,0)" opacity="1.0" /><rect x="660" y="260" width="20" height="20" fill="rgb(0,0,0)" opacity="1.0" /><rect x="680" y="260" width="20" height="20" fill="rgb(0,0,0)" opacity="1.0" /><rect x="100" y="280" width="20" height="20" fill="rgb(0,0,0)" opacity="1.0" /><rect x="140" y="280" width="20" height="20" fill="rgb(0,0,0)" opacity="1.0" /><rect x="160" y="280" width="20" height="20" fill="rgb(0,0,0)" opacity="1.0" /><rect x="180" y="280" width="20" height="20" fill="rgb(0,0,0)" opacity="1.0" /><rect x="200" y="280" width="20" height="20" fill="rgb(0,0,0)" opacity="1.0" /><rect x="220" y="280" width="20" height="20" fill="rgb(0,0,0)" opacity="1.0" /><rect x="240" y="280" width="20" height="20" fill="rgb(0,0,0)" opacity="1.0" /><rect x="260" y="280" width="20" height="20" fill="rgb(0,0,0)" opacity="1.0" /><rect x="280" y="280" width="20" height="20" fill="rgb(0,0,0)" opacity="1.0" /><rect x="300" y="280" width="20" height="20" fill="rgb(0,0,0)" opacity="1.0" /><rect x="340" y="280" width="20" height="20" fill="rgb(0,0,0)" opacity="1.0" /><rect x="360" y="280" width="20" height="20" fill="rgb(0,0,0)" opacity="1.0" /><polygon points="380,280 390,280 400,300 380,300" fill="rgb(0,0,0)" opacity="1.0" /><polygon points="440,290 460,280 460,300 440,300" fill="rgb(0,0,0)" opacity="1.0" /><rect x="520" y="280" width="20" height="20" fill="rgb(0,0,0)" opacity="1.0" /><rect x="540" y="280" width="20" height="20" fill="rgb(0,0,0)" opacity="1.0" /><rect x="560" y="280" width="20" height="20" fill="rgb(0,0,0)" opacity="1.0" /><rect x="580" y="280" width="20" height="20" fill="rgb(0,0,0)" opacity="1.0" /><rect x="660" y="280" width="20" height="20" fill="rgb(0,0,0)" opacity="1.0" /><rect x="680" y="280" width="20" height="20" fill="rgb(0,0,0)" opacity="1.0" /><rect x="700" y="280" width="20" height="20" fill="rgb(0,0,0)" opacity="1.0" /><rect x="720" y="280" width="20" height="20" fill="rgb(0,0,0)" opacity="1.0" /><rect x="100" y="300" width="20" height="20" fill="rgb(0,0,0)" opacity="1.0" /><polygon points="120,300 130,300 140,320 120,320" fill="rgb(0,0,0)" opacity="1.0" /><polygon points="280,300 300,300 300,310 280,320" fill="rgb(0,0,0)" opacity="1.0" /><polygon points="320,300 340,300 340,320 330,320" fill="rgb(0,0,0)" opacity="1.0" /><rect x="340" y="300" width="20" height="20" fill="rgb(0,0,0)" opacity="1.0" /><rect x="420" y="300" width="20" height="20" fill="rgb(0,0,0)" opacity="1.0" /><rect x="440" y="300" width="20" height="20" fill="rgb(0,0,0)" opacity="1.0" /><rect x="460" y="300" width="20" height="20" fill="rgb(0,0,0)" opacity="1.0" /><polygon points="480,300 490,300 500,320 480,320" fill="rgb(0,0,0)" opacity="1.0" /><rect x="520" y="300" width="20" height="20" fill="rgb(0,0,0)" opacity="1.0" /><polygon points="560,300 580,300 580,310 560,320" fill="rgb(0,0,0)" opacity="1.0" /><polygon points="600,300 620,300 620,320 610,320" fill="rgb(0,0,0)" opacity="1.0" /><rect x="620" y="300" width="20" height="20" fill="rgb(0,0,0)" opacity="1.0" /><rect x="640" y="300" width="20" height="20" fill="rgb(0,0,0)" opacity="1.0" /><rect x="660" y="300" width="20" height="20" fill="rgb(0,0,0)" opacity="1.0" /><rect x="680" y="300" width="20" height="20" fill="rgb(0,0,0)" opacity="1.0" /><rect x="720" y="300" width="20" height="20" fill="rgb(0,0,0)" opacity="1.0" /><polygon points="80,330 100,320 100,340 80,340" fill="rgb(0,0,0)" opacity="1.0" /><polygon points="160,330 180,320 180,340 160,340" fill="rgb(0,0,0)" opacity="1.0" /><rect x="200" y="320" width="20" height="20" fill="rgb(0,0,0)" opacity="1.0" /><polygon points="340,320 360,320 360,330 340,340" fill="rgb(0,0,0)" opacity="1.0" /><polygon points="400,320 420,320 420,340 410,340" fill="rgb(0,0,0)" opacity="1.0" /><rect x="420" y="320" width="20" height="20" fill="rgb(0,0,0)" opacity="1.0" /><rect x="440" y="320" width="20" height="20" fill="rgb(0,0,0)" opacity="1.0" /><rect x="460" y="320" width="20" height="20" fill="rgb(0,0,0)" opacity="1.0" /><polygon points="500,320 520,320 520,340 510,340" fill="rgb(0,0,0)" opacity="1.0" /><rect x="520" y="320" width="20" height="20" fill="rgb(0,0,0)" opacity="1.0" /><rect x="620" y="320" width="20" height="20" fill="rgb(0,0,0)" opacity="1.0" /><rect x="680" y="320" width="20" height="20" fill="rgb(0,0,0)" opacity="1.0" /><rect x="700" y="320" width="20" height="20" fill="rgb(0,0,0)" opacity="1.0" /><rect x="720" y="320" width="20" height="20" fill="rgb(0,0,0)" opacity="1.0" /><rect x="80" y="340" width="20" height="20" fill="rgb(0,0,0)" opacity="1.0" /><polygon points="120,340 140,340 140,360 130,360" fill="rgb(0,0,0)" opacity="1.0" /><rect x="140" y="340" width="20" height="20" fill="rgb(0,0,0)" opacity="1.0" /><rect x="160" y="340" width="20" height="20" fill="rgb(0,0,0)" opacity="1.0" /><rect x="180" y="340" width="20" height="20" fill="rgb(0,0,0)" opacity="1.0" /><polygon points="220,340 240,340 240,360 230,360" fill="rgb(0,0,0)" opacity="1.0" /><rect x="240" y="340" width="20" height="20" fill="rgb(0,0,0)" opacity="1.0" /><polygon points="260,340 270,340 280,360 260,360" fill="rgb(0,0,0)" opacity="1.0" /><polygon points="300,340 320,340 320,360 310,360" fill="rgb(0,0,0)" opacity="1.0" /><polygon points="320,340 330,340 340,360 320,360" fill="rgb(0,0,0)" opacity="1.0" /><rect x="360" y="340" width="20" height="20" fill="rgb(0,0,0)" opacity="1.0" /><rect x="460" y="340" width="20" height="20" fill="rgb(0,0,0)" opacity="1.0" /><polygon points="480,340 490,340 500,360 480,360" fill="rgb(0,0,0)" opacity="1.0" /><polygon points="520,340 540,340 540,350 520,360" fill="rgb(0,0,0)" opacity="1.0" /><polygon points="560,340 580,340 580,360 570,360" fill="rgb(0,0,0)" opacity="1.0" /><polygon points="580,340 590,340 600,360 580,360" fill="rgb(0,0,0)" opacity="1.0" /><rect x="620" y="340" width="20" height="20" fill="rgb(0,0,0)" opacity="1.0" /><polygon points="660,340 680,340 680,360 670,360" fill="rgb(0,0,0)" opacity="1.0" /><rect x="680" y="340" width="20" height="20" fill="rgb(0,0,0)" opacity="1.0" /><polygon points="720,340 740,340 740,350 720,360" fill="rgb(0,0,0)" opacity="1.0" /><rect x="80" y="360" width="20" height="20" fill="rgb(0,0,0)" opacity="1.0" /><rect x="140" y="360" width="20" height="20" fill="rgb(0,0,0)" opacity="1.0" /><rect x="160" y="360" width="20" height="20" fill="rgb(0,0,0)" opacity="1.0" /><rect x="180" y="360" width="20" height="20" fill="rgb(0,0,0)" opacity="1.0" /><polygon points="200,360 210,360 220,380 200,380" fill="rgb(0,0,0)" opacity="1.0" /><rect x="240" y="360" width="20" height="20" fill="rgb(0,0,0)" opacity="1.0" /><polygon points="380,370 400,360 400,380 380,380" fill="rgb(0,0,0)" opacity="1.0" /><polygon points="620,360 640,360 640,370 620,380" fill="rgb(0,0,0)" opacity="1.0" /><rect x="680" y="360" width="20" height="20" fill="rgb(0,0,0)" opacity="1.0" /><rect x="700" y="360" width="20" height="20" fill="rgb(0,0,0)" opacity="1.0" /><rect x="80" y="380" width="20" height="20" fill="rgb(0,0,0)" opacity="1.0" /><rect x="180" y="380" width="20" height="20" fill="rgb(0,0,0)" opacity="1.0" /><rect x="240" y="380" width="20" height="20" fill="rgb(0,0,0)" opacity="1.0" /><polygon points="260,380 270,380 280,400 260,400" fill="rgb(0,0,0)" opacity="1.0" /><rect x="300" y="380" width="20" height="20" fill="rgb(0,0,0)" opacity="1.0" /><rect x="320" y="380" width="20" height="20" fill="rgb(0,0,0)" opacity="1.0" /><rect x="380" y="380" width="20" height="20" fill="rgb(0,0,0)" opacity="1.0" /><polygon points="400,380 410,380 420,400 400,400" fill="rgb(0,0,0)" opacity="1.0" /><rect x="460" y="380" width="20" height="20" fill="rgb(0,0,0)" opacity="1.0" /><rect x="480" y="380" width="20" height="20" fill="rgb(0,0,0)" opacity="1.0" /><polygon points="520,390 540,380 540,400 520,400" fill="rgb(0,0,0)" opacity="1.0" /><polygon points="560,390 580,380 580,400 560,400" fill="rgb(0,0,0)" opacity="1.0" /><rect x="600" y="380" width="20" height="20" fill="rgb(0,0,0)" opacity="1.0" /><rect x="640" y="380" width="20" height="20" fill="rgb(0,0,0)" opacity="1.0" /><polygon points="660,380 670,380 680,400 660,400" fill="rgb(0,0,0)" opacity="1.0" /><rect x="700" y="380" width="20" height="20" fill="rgb(0,0,0)" opacity="1.0" /><rect x="720" y="380" width="20" height="20" fill="rgb(0,0,0)" opacity="1.0" /><rect x="80" y="400" width="20" height="20" fill="rgb(0,0,0)" opacity="1.0" /><polygon points="100,400 110,400 120,420 100,420" fill="rgb(0,0,0)" opacity="1.0" /><rect x="160" y="400" width="20" height="20" fill="rgb(0,0,0)" opacity="1.0" /><rect x="180" y="400" width="20" height="20" fill="rgb(0,0,0)" opacity="1.0" /><rect x="200" y="400" width="20" height="20" fill="rgb(0,0,0)" opacity="1.0" /><rect x="220" y="400" width="20" height="20" fill="rgb(0,0,0)" opacity="1.0" /><rect x="240" y="400" width="20" height="20" fill="rgb(0,0,0)" opacity="1.0" /><rect x="300" y="400" width="20" height="20" fill="rgb(0,0,0)" opacity="1.0" /><rect x="320" y="400" width="20" height="20" fill="rgb(0,0,0)" opacity="1.0" /><rect x="340" y="400" width="20" height="20" fill="rgb(0,0,0)" opacity="1.0" /><rect x="360" y="400" width="20" height="20" fill="rgb(0,0,0)" opacity="1.0" /><rect x="420" y="400" width="20" height="20" fill="rgb(0,0,0)" opacity="1.0" /><rect x="460" y="400" width="20" height="20" fill="rgb(0,0,0)" opacity="1.0" /><rect x="480" y="400" width="20" height="20" fill="rgb(0,0,0)" opacity="1.0" /><polygon points="520,400 540,400 540,410 520,420" fill="rgb(0,0,0)" opacity="1.0" /><rect x="560" y="400" width="20" height="20" fill="rgb(0,0,0)" opacity="1.0" /><polygon points="620,400 640,400 640,420 630,420" fill="rgb(0,0,0)" opacity="1.0" /><rect x="640" y="400" width="20" height="20" fill="rgb(0,0,0)" opacity="1.0" /><rect x="680" y="400" width="20" height="20" fill="rgb(0,0,0)" opacity="1.0" /><rect x="700" y="400" width="20" height="20" fill="rgb(0,0,0)" opacity="1.0" /><rect x="720" y="400" width="20" height="20" fill="rgb(0,0,0)" opacity="1.0" /><polygon points="80,420 100,420 100,430 80,440" fill="rgb(0,0,0)" opacity="1.0" /><polygon points="120,420 140,420 140,440 130,440" fill="rgb(0,0,0)" opacity="1.0" /><rect x="140" y="420" width="20" height="20" fill="rgb(0,0,0)" opacity="1.0" /><rect x="160" y="420" width="20" height="20" fill="rgb(0,0,0)" opacity="1.0" /><rect x="220" y="420" width="20" height="20" fill="rgb(0,0,0)" opacity="1.0" /><rect x="240" y="420" width="20" height="20" fill="rgb(0,0,0)" opacity="1.0" /><rect x="260" y="420" width="20" height="20" fill="rgb(0,0,0)" opacity="1.0" /><polygon points="300,420 320,420 320,430 300,440" fill="rgb(0,0,0)" opacity="1.0" /><rect x="340" y="420" width="20" height="20" fill="rgb(0,0,0)" opacity="1.0" /><rect x="360" y="420" width="20" height="20" fill="rgb(0,0,0)" opacity="1.0" /><rect x="440" y="420" width="20" height="20" fill="rgb(0,0,0)" opacity="1.0" /><rect x="540" y="420" width="20" height="20" fill="rgb(0,0,0)" opacity="1.0" /><rect x="560" y="420" width="20" height="20" fill="rgb(0,0,0)" opacity="1.0" /><polygon points="660,420 680,420 680,440 670,440" fill="rgb(0,0,0)" opacity="1.0" /><rect x="680" y="420" width="20" height="20" fill="rgb(0,0,0)" opacity="1.0" /><rect x="100" y="440" width="20" height="20" fill="rgb(0,0,0)" opacity="1.0" /><rect x="140" y="440" width="20" height="20" fill="rgb(0,0,0)" opacity="1.0" /><rect x="160" y="440" width="20" height="20" fill="rgb(0,0,0)" opacity="1.0" /><rect x="180" y="440" width="20" height="20" fill="rgb(0,0,0)" opacity="1.0" /><rect x="200" y="440" width="20" height="20" fill="rgb(0,0,0)" opacity="1.0" /><rect x="220" y="440" width="20" height="20" fill="rgb(0,0,0)" opacity="1.0" /><rect x="240" y="440" width="20" height="20" fill="rgb(0,0,0)" opacity="1.0" /><rect x="260" y="440" width="20" height="20" fill="rgb(0,0,0)" opacity="1.0" /><rect x="280" y="440" width="20" height="20" fill="rgb(0,0,0)" opacity="1.0" /><polygon points="320,440 340,440 340,460 330,460" fill="rgb(0,0,0)" opacity="1.0" /><rect x="340" y="440" width="20" height="20" fill="rgb(0,0,0)" opacity="1.0" /><polygon points="400,440 420,440 420,460 410,460" fill="rgb(0,0,0)" opacity="1.0" /><rect x="420" y="440" width="20" height="20" fill="rgb(0,0,0)" opacity="1.0" /><polygon points="460,450 480,440 480,460 460,460" fill="rgb(0,0,0)" opacity="1.0" /><rect x="520" y="440" width="20" height="20" fill="rgb(0,0,0)" opacity="1.0" /><rect x="540" y="440" width="20" height="20" fill="rgb(0,0,0)" opacity="1.0" /><polygon points="580,450 600,440 600,460 580,460" fill="rgb(0,0,0)" opacity="1.0" /><rect x="680" y="440" width="20" height="20" fill="rgb(0,0,0)" opacity="1.0" /><rect x="700" y="440" width="20" height="20" fill="rgb(0,0,0)" opacity="1.0" /><rect x="720" y="440" width="20" height="20" fill="rgb(0,0,0)" opacity="1.0" /><rect x="80" y="460" width="20" height="20" fill="rgb(0,0,0)" opacity="1.0" /><rect x="160" y="460" width="20" height="20" fill="rgb(0,0,0)" opacity="1.0" /><polygon points="280,460 300,460 300,470 280,480" fill="rgb(0,0,0)" opacity="1.0" /><rect x="340" y="460" width="20" height="20" fill="rgb(0,0,0)" opacity="1.0" /><polygon points="360,460 370,460 380,480 360,480" fill="rgb(0,0,0)" opacity="1.0" /><polygon points="420,460 440,460 440,470 420,480" fill="rgb(0,0,0)" opacity="1.0" /><rect x="460" y="460" width="20" height="20" fill="rgb(0,0,0)" opacity="1.0" /><rect x="480" y="460" width="20" height="20" fill="rgb(0,0,0)" opacity="1.0" /><rect x="500" y="460" width="20" height="20" fill="rgb(0,0,0)" opacity="1.0" /><rect x="520" y="460" width="20" height="20" fill="rgb(0,0,0)" opacity="1.0" /><rect x="560" y="460" width="20" height="20" fill="rgb(0,0,0)" opacity="1.0" /><rect x="580" y="460" width="20" height="20" fill="rgb(0,0,0)" opacity="1.0" /><rect x="600" y="460" width="20" height="20" fill="rgb(0,0,0)" opacity="1.0" /><polygon points="640,470 660,460 660,480 640,480" fill="rgb(0,0,0)" opacity="1.0" /><rect x="720" y="460" width="20" height="20" fill="rgb(0,0,0)" opacity="1.0" /><rect x="160" y="480" width="20" height="20" fill="rgb(0,0,0)" opacity="1.0" /><rect x="180" y="480" width="20" height="20" fill="rgb(0,0,0)" opacity="1.0" /><rect x="200" y="480" width="20" height="20" fill="rgb(0,0,0)" opacity="1.0" /><rect x="220" y="480" width="20" height="20" fill="rgb(0,0,0)" opacity="1.0" /><rect x="240" y="480" width="20" height="20" fill="rgb(0,0,0)" opacity="1.0" /><polygon points="260,480 270,480 280,500 260,500" fill="rgb(0,0,0)" opacity="1.0" /><polygon points="340,480 360,480 360,490 340,500" fill="rgb(0,0,0)" opacity="1.0" /><rect x="440" y="480" width="20" height="20" fill="rgb(0,0,0)" opacity="1.0" /><rect x="460" y="480" width="20" height="20" fill="rgb(0,0,0)" opacity="1.0" /><rect x="480" y="480" width="20" height="20" fill="rgb(0,0,0)" opacity="1.0" /><rect x="500" y="480" width="20" height="20" fill="rgb(0,0,0)" opacity="1.0" /><polygon points="560,480 580,480 580,490 560,500" fill="rgb(0,0,0)" opacity="1.0" /><rect x="600" y="480" width="20" height="20" fill="rgb(0,0,0)" opacity="1.0" /><rect x="620" y="480" width="20" height="20" fill="rgb(0,0,0)" opacity="1.0" /><rect x="640" y="480" width="20" height="20" fill="rgb(0,0,0)" opacity="1.0" /><polygon points="680,490 700,480 700,500 680,500" fill="rgb(0,0,0)" opacity="1.0" /><rect x="720" y="480" width="20" height="20" fill="rgb(0,0,0)" opacity="1.0" /><polygon points="80,500 100,500 100,520 90,520" fill="rgb(0,0,0)" opacity="1.0" /><polygon points="100,500 110,500 120,520 100,520" fill="rgb(0,0,0)" opacity="1.0" /><rect x="160" y="500" width="20" height="20" fill="rgb(0,0,0)" opacity="1.0" /><rect x="180" y="500" width="20" height="20" fill="rgb(0,0,0)" opacity="1.0" /><polygon points="240,500 260,500 260,510 240,520" fill="rgb(0,0,0)" opacity="1.0" /><polygon points="280,510 300,500 300,520 280,520" fill="rgb(0,0,0)" opacity="1.0" /><polygon points="320,510 340,500 340,520 320,520" fill="rgb(0,0,0)" opacity="1.0" /><rect x="360" y="500" width="20" height="20" fill="rgb(0,0,0)" opacity="1.0" /><polygon points="400,510 420,500 420,520 400,520" fill="rgb(0,0,0)" opacity="1.0" /><rect x="440" y="500" width="20" height="20" fill="rgb(0,0,0)" opacity="1.0" /><rect x="460" y="500" width="20" height="20" fill="rgb(0,0,0)" opacity="1.0" /><rect x="480" y="500" width="20" height="20" fill="rgb(0,0,0)" opacity="1.0" /><rect x="520" y="500" width="20" height="20" fill="rgb(0,0,0)" opacity="1.0" /><polygon points="580,500 600,500 600,520 590,520" fill="rgb(0,0,0)" opacity="1.0" /><rect x="600" y="500" width="20" height="20" fill="rgb(0,0,0)" opacity="1.0" /><polygon points="660,500 680,500 680,520 670,520" fill="rgb(0,0,0)" opacity="1.0" /><rect x="680" y="500" width="20" height="20" fill="rgb(0,0,0)" opacity="1.0" /><rect x="700" y="500" width="20" height="20" fill="rgb(0,0,0)" opacity="1.0" /><rect x="720" y="500" width="20" height="20" fill="rgb(0,0,0)" opacity="1.0" /><polygon points="120,520 140,520 140,540 130,540" fill="rgb(0,0,0)" opacity="1.0" /><polygon points="140,520 150,520 160,540 140,540" fill="rgb(0,0,0)" opacity="1.0" /><polygon points="200,520 220,520 220,540 210,540" fill="rgb(0,0,0)" opacity="1.0" /><polygon points="220,520 230,520 240,540 220,540" fill="rgb(0,0,0)" opacity="1.0" /><polygon points="260,520 280,520 280,540 270,540" fill="rgb(0,0,0)" opacity="1.0" /><rect x="280" y="520" width="20" height="20" fill="rgb(0,0,0)" opacity="1.0" /><rect x="300" y="520" width="20" height="20" fill="rgb(0,0,0)" opacity="1.0" /><rect x="320" y="520" width="20" height="20" fill="rgb(0,0,0)" opacity="1.0" /><polygon points="340,520 350,520 360,540 340,540" fill="rgb(0,0,0)" opacity="1.0" /><polygon points="400,520 420,520 420,530 400,540" fill="rgb(0,0,0)" opacity="1.0" /><rect x="440" y="520" width="20" height="20" fill="rgb(0,0,0)" opacity="1.0" /><rect x="460" y="520" width="20" height="20" fill="rgb(0,0,0)" opacity="1.0" /><polygon points="540,520 560,520 560,540 550,540" fill="rgb(0,0,0)" opacity="1.0" /><rect x="560" y="520" width="20" height="20" fill="rgb(0,0,0)" opacity="1.0" /><rect x="680" y="520" width="20" height="20" fill="rgb(0,0,0)" opacity="1.0" /><rect x="700" y="520" width="20" height="20" fill="rgb(0,0,0)" opacity="1.0" /><rect x="180" y="540" width="20" height="20" fill="rgb(0,0,0)" opacity="1.0" /><rect x="280" y="540" width="20" height="20" fill="rgb(0,0,0)" opacity="1.0" /><rect x="300" y="540" width="20" height="20" fill="rgb(0,0,0)" opacity="1.0" /><rect x="320" y="540" width="20" height="20" fill="rgb(0,0,0)" opacity="1.0" /><polygon points="360,550 380,540 380,560 360,560" fill="rgb(0,0,0)" opacity="1.0" /><polygon points="420,550 440,540 440,560 420,560" fill="rgb(0,0,0)" opacity="1.0" /><rect x="460" y="540" width="20" height="20" fill="rgb(0,0,0)" opacity="1.0" /><rect x="480" y="540" width="20" height="20" fill="rgb(0,0,0)" opacity="1.0" /><rect x="500" y="540" width="20" height="20" fill="rgb(0,0,0)" opacity="1.0" /><rect x="560" y="540" width="20" height="20" fill="rgb(0,0,0)" opacity="1.0" /><polygon points="600,550 620,540 620,560 600,560" fill="rgb(0,0,0)" opacity="1.0" /><rect x="640" y="540" width="20" height="20" fill="rgb(0,0,0)" opacity="1.0" /><polygon points="660,540 670,540 680,560 660,560" fill="rgb(0,0,0)" opacity="1.0" /><rect x="720" y="540" width="20" height="20" fill="rgb(0,0,0)" opacity="1.0" /><polygon points="80,560 100,560 100,580 90,580" fill="rgb(0,0,0)" opacity="1.0" /><rect x="100" y="560" width="20" height="20" fill="rgb(0,0,0)" opacity="1.0" /><rect x="120" y="560" width="20" height="20" fill="rgb(0,0,0)" opacity="1.0" /><polygon points="140,560 150,560 160,580 140,580" fill="rgb(0,0,0)" opacity="1.0" /><polygon points="200,560 220,560 220,580 210,580" fill="rgb(0,0,0)" opacity="1.0" /><rect x="220" y="560" width="20" height="20" fill="rgb(0,0,0)" opacity="1.0" /><rect x="240" y="560" width="20" height="20" fill="rgb(0,0,0)" opacity="1.0" /><polygon points="280,560 300,560 300,570 280,580" fill="rgb(0,0,0)" opacity="1.0" /><rect x="360" y="560" width="20" height="20" fill="rgb(0,0,0)" opacity="1.0" /><polygon points="380,560 390,560 400,580 380,580" fill="rgb(0,0,0)" opacity="1.0" /><rect x="420" y="560" width="20" height="20" fill="rgb(0,0,0)" opacity="1.0" /><rect x="460" y="560" width="20" height="20" fill="rgb(0,0,0)" opacity="1.0" /><polygon points="500,560 520,560 520,570 500,580" fill="rgb(0,0,0)" opacity="1.0" /><rect x="560" y="560" width="20" height="20" fill="rgb(0,0,0)" opacity="1.0" /><rect x="580" y="560" width="20" height="20" fill="rgb(0,0,0)" opacity="1.0" /><rect x="600" y="560" width="20" height="20" fill="rgb(0,0,0)" opacity="1.0" /><rect x="620" y="560" width="20" height="20" fill="rgb(0,0,0)" opacity="1.0" /><rect x="640" y="560" width="20" height="20" fill="rgb(0,0,0)" opacity="1.0" /><rect x="700" y="560" width="20" height="20" fill="rgb(0,0,0)" opacity="1.0" /><rect x="240" y="580" width="20" height="20" fill="rgb(0,0,0)" opacity="1.0" /><rect x="300" y="580" width="20" height="20" fill="rgb(0,0,0)" opacity="1.0" /><polygon points="340,590 360,580 360,600 340,600" fill="rgb(0,0,0)" opacity="1.0" /><polygon points="400,580 420,580 420,600 410,600" fill="rgb(0,0,0)" opacity="1.0" /><rect x="420" y="580" width="20" height="20" fill="rgb(0,0,0)" opacity="1.0" /><polygon points="460,580 480,580 480,590 460,600" fill="rgb(0,0,0)" opacity="1.0" /><polygon points="520,590 540,580 540,600 520,600" fill="rgb(0,0,0)" opacity="1.0" /><rect x="560" y="580" width="20" height="20" fill="rgb(0,0,0)" opacity="1.0" /><rect x="640" y="580" width="20" height="20" fill="rgb(0,0,0)" opacity="1.0" /><rect x="660" y="580" width="20" height="20" fill="rgb(0,0,0)" opacity="1.0" /><rect x="680" y="580" width="20" height="20" fill="rgb(0,0,0)" opacity="1.0" /><polygon points="720,590 740,580 740,600 720,600" fill="rgb(0,0,0)" opacity="1.0" /><polygon points="240,600 260,600 260,610 240,620" fill="rgb(0,0,0)" opacity="1.0" /><polygon points="320,600 340,600 340,620 330,620" fill="rgb(0,0,0)" opacity="1.0" /><rect x="340" y="600" width="20" height="20" fill="rgb(0,0,0)" opacity="1.0" /><rect x="360" y="600" width="20" height="20" fill="rgb(0,0,0)" opacity="1.0" /><polygon points="380,600 390,600 400,620 380,620" fill="rgb(0,0,0)" opacity="1.0" /><rect x="440" y="600" width="20" height="20" fill="rgb(0,0,0)" opacity="1.0" /><polygon points="480,610 500,600 500,620 480,620" fill="rgb(0,0,0)" opacity="1.0" /><rect x="520" y="600" width="20" height="20" fill="rgb(0,0,0)" opacity="1.0" /><rect x="540" y="600" width="20" height="20" fill="rgb(0,0,0)" opacity="1.0" /><rect x="560" y="600" width="20" height="20" fill="rgb(0,0,0)" opacity="1.0" /><rect x="600" y="600" width="20" height="20" fill="rgb(0,0,0)" opacity="1.0" /><rect x="640" y="600" width="20" height="20" fill="rgb(0,0,0)" opacity="1.0" /><polygon points="680,600 700,600 700,610 680,620" fill="rgb(0,0,0)" opacity="1.0" /><rect x="720" y="600" width="20" height="20" fill="rgb(0,0,0)" opacity="1.0" /><rect x="280" y="620" width="20" height="20" fill="rgb(0,0,0)" opacity="1.0" /><rect x="300" y="620" width="20" height="20" fill="rgb(0,0,0)" opacity="1.0" /><polygon points="340,620 360,620 360,630 340,640" fill="rgb(0,0,0)" opacity="1.0" /><rect x="460" y="620" width="20" height="20" fill="rgb(0,0,0)" opacity="1.0" /><rect x="480" y="620" width="20" height="20" fill="rgb(0,0,0)" opacity="1.0" /><rect x="520" y="620" width="20" height="20" fill="rgb(0,0,0)" opacity="1.0" /><rect x="560" y="620" width="20" height="20" fill="rgb(0,0,0)" opacity="1.0" /><rect x="640" y="620" width="20" height="20" fill="rgb(0,0,0)" opacity="1.0" /><rect x="720" y="620" width="20" height="20" fill="rgb(0,0,0)" opacity="1.0" /><rect x="240" y="640" width="20" height="20" fill="rgb(0,0,0)" opacity="1.0" /><rect x="280" y="640" width="20" height="20" fill="rgb(0,0,0)" opacity="1.0" /><rect x="300" y="640" width="20" height="20" fill="rgb(0,0,0)" opacity="1.0" /><rect x="400" y="640" width="20" height="20" fill="rgb(0,0,0)" opacity="1.0" /><rect x="460" y="640" width="20" height="20" fill="rgb(0,0,0)" opacity="1.0" /><rect x="480" y="640" width="20" height="20" fill="rgb(0,0,0)" opacity="1.0" /><rect x="500" y="640" width="20" height="20" fill="rgb(0,0,0)" opacity="1.0" /><rect x="520" y="640" width="20" height="20" fill="rgb(0,0,0)" opacity="1.0" /><rect x="560" y="640" width="20" height="20" fill="rgb(0,0,0)" opacity="1.0" /><rect x="580" y="640" width="20" height="20" fill="rgb(0,0,0)" opacity="1.0" /><rect x="600" y="640" width="20" height="20" fill="rgb(0,0,0)" opacity="1.0" /><rect x="620" y="640" width="20" height="20" fill="rgb(0,0,0)" opacity="1.0" /><rect x="640" y="640" width="20" height="20" fill="rgb(0,0,0)" opacity="1.0" /><polygon points="680,650 700,640 700,660 680,660" fill="rgb(0,0,0)" opacity="1.0" /><rect x="720" y="640" width="20" height="20" fill="rgb(0,0,0)" opacity="1.0" /><rect x="280" y="660" width="20" height="20" fill="rgb(0,0,0)" opacity="1.0" /><rect x="300" y="660" width="20" height="20" fill="rgb(0,0,0)" opacity="1.0" /><rect x="340" y="660" width="20" height="20" fill="rgb(0,0,0)" opacity="1.0" /><polygon points="360,660 370,660 380,680 360,680" fill="rgb(0,0,0)" opacity="1.0" /><rect x="440" y="660" width="20" height="20" fill="rgb(0,0,0)" opacity="1.0" /><rect x="460" y="660" width="20" height="20" fill="rgb(0,0,0)" opacity="1.0" /><polygon points="520,660 540,660 540,670 520,680" fill="rgb(0,0,0)" opacity="1.0" /><rect x="660" y="660" width="20" height="20" fill="rgb(0,0,0)" opacity="1.0" /><rect x="680" y="660" width="20" height="20" fill="rgb(0,0,0)" opacity="1.0" /><polygon points="720,660 740,660 740,670 720,680" fill="rgb(0,0,0)" opacity="1.0" /><polygon points="260,680 280,680 280,700 270,700" fill="rgb(0,0,0)" opacity="1.0" /><rect x="280" y="680" width="20" height="20" fill="rgb(0,0,0)" opacity="1.0" /><rect x="300" y="680" width="20" height="20" fill="rgb(0,0,0)" opacity="1.0" /><rect x="340" y="680" width="20" height="20" fill="rgb(0,0,0)" opacity="1.0" /><polygon points="380,690 400,680 400,700 380,700" fill="rgb(0,0,0)" opacity="1.0" /><polygon points="440,680 460,680 460,690 440,700" fill="rgb(0,0,0)" opacity="1.0" /><polygon points="480,690 500,680 500,700 480,700" fill="rgb(0,0,0)" opacity="1.0" /><rect x="580" y="680" width="20" height="20" fill="rgb(0,0,0)" opacity="1.0" /><rect x="600" y="680" width="20" height="20" fill="rgb(0,0,0)" opacity="1.0" /><rect x="620" y="680" width="20" height="20" fill="rgb(0,0,0)" opacity="1.0" /><rect x="640" y="680" width="20" height="20" fill="rgb(0,0,0)" opacity="1.0" /><rect x="660" y="680" width="20" height="20" fill="rgb(0,0,0)" opacity="1.0" /><rect x="680" y="680" width="20" height="20" fill="rgb(0,0,0)" opacity="1.0" /><rect x="320" y="700" width="20" height="20" fill="rgb(0,0,0)" opacity="1.0" /><rect x="340" y="700" width="20" height="20" fill="rgb(0,0,0)" opacity="1.0" /><rect x="380" y="700" width="20" height="20" fill="rgb(0,0,0)" opacity="1.0" /><rect x="400" y="700" width="20" height="20" fill="rgb(0,0,0)" opacity="1.0" /><rect x="460" y="700" width="20" height="20" fill="rgb(0,0,0)" opacity="1.0" /><rect x="480" y="700" width="20" height="20" fill="rgb(0,0,0)" opacity="1.0" /><rect x="500" y="700" width="20" height="20" fill="rgb(0,0,0)" opacity="1.0" /><polygon points="520,700 530,700 540,720 520,720" fill="rgb(0,0,0)" opacity="1.0" /><rect x="580" y="700" width="20" height="20" fill="rgb(0,0,0)" opacity="1.0" /><polygon points="700,700 720,700 720,720 710,720" fill="rgb(0,0,0)" opacity="1.0" /><rect x="720" y="700" width="20" height="20" fill="rgb(0,0,0)" opacity="1.0" /><polygon points="240,720 260,720 260,740 250,740" fill="rgb(0,0,0)" opacity="1.0" /><polygon points="260,720 270,720 280,740 260,740" fill="rgb(0,0,0)" opacity="1.0" /><polygon points="300,720 320,720 320,740 310,740" fill="rgb(0,0,0)" opacity="1.0" /><rect x="320" y="720" width="20" height="20" fill="rgb(0,0,0)" opacity="1.0" /><rect x="340" y="720" width="20" height="20" fill="rgb(0,0,0)" opacity="1.0" /><polygon points="400,720 420,720 420,730 400,740" fill="rgb(0,0,0)" opacity="1.0" /><polygon points="440,720 460,720 460,740 450,740" fill="rgb(0,0,0)" opacity="1.0" /><rect x="460" y="720" width="20" height="20" fill="rgb(0,0,0)" opacity="1.0" /><rect x="480" y="720" width="20" height="20" fill="rgb(0,0,0)" opacity="1.0" /><rect x="500" y="720" width="20" height="20" fill="rgb(0,0,0)" opacity="1.0" /><polygon points="560,720 580,720 580,740 570,740" fill="rgb(0,0,0)" opacity="1.0" /><rect x="580" y="720" width="20" height="20" fill="rgb(0,0,0)" opacity="1.0" /><rect x="620" y="720" width="20" height="20" fill="rgb(0,0,0)" opacity="1.0" /><polygon points="660,720 680,720 680,740 670,740" fill="rgb(0,0,0)" opacity="1.0" /><polygon points="680,720 690,720 700,740 680,740" fill="rgb(0,0,0)" opacity="1.0" /><polygon points="720,720 740,720 740,730 720,740" fill="rgb(0,0,0)" opacity="1.0" /><path d="M80,80 h140 v140 h-140 Z M100.0,100.0 h100.0 v100.0 h-100.0 Z" fill-rule="evenodd" fill="rgb(0,0,0)" opacity="1.0" shape-rendering="crispEdges" /><path d="M600,80 h140 v140 h-140 Z M620.0,100.0 h100.0 v100.0 h-100.0 Z" fill-rule="evenodd" fill="rgb(0,0,0)" opacity="1.0" shape-rendering="crispEdges" /><rect x="120" y="120" width="60" height="60" fill="rgb(0,0,0)" opacity="1.0" shape-rendering="crispEdges" /><rect x="640" y="120" width="60" height="60" fill="rgb(0,0,0)" opacity="1.0" shape-rendering="crispEdges" /><path d="M80,600 h140 v140 h-140 Z M100.0,620.0 h100.0 v100.0 h-100.0 Z" fill-rule="evenodd" fill="rgb(0,0,0)" opacity="1.0" shape-rendering="crispEdges" /><rect x="120" y="640" width="60" height="60" fill="rgb(0,0,0)" opacity="1.0" shape-rendering="crispEdges" /></svg></g></svg>