<?xml version="1.0" encoding="utf-8"?>
<svg version="1.1" xmlns="http://www.w3.org/2000/svg" xmlns:xlink="http://www.w3.org/1999/xlink" width="600" height="600" viewBox="0 0 1000 1000" enable-background="new 0 0 600 600" xml:space="preserve"><g transform="translate(0,0) scale(1.6666667,1.6666667)"><svg width="600" height="600" viewBox="0 0 820 820" enable-background="new 0 0 600 600" xml:space="preserve"><rect x="0" y="0" width="820" height="820" fill="rgb(255,255,255)" opacity="1.0" /><rect x="260" y="80" width="20" height="20" fill="rgb(0,0,0)" opacity="1.0" /><polygon points="280,80 290,80 300,100 280,100" fill="rgb(0,0,0)" opacity="1.0" /><rect x="320" y="80" width="20" height="20" fill="rgb(0,0,0)" opacity="1.0" /><polygon points="440,90 460,80 460,100 440,100" fill="rgb(0,0,0)" opacity="1.0" /><polygon points="480,80 500,80 500,100 490,100" fill="rgb(0,0,0)" opacity="1.0" /><rect x="500" y="80" width="20" height="20" fill="rgb(0,0,0)" opacity="1.0" /><rect x="520" y="80" width="20" height="20" fill="rgb(0,0,0)" opacity="1.0" /><rect x="540" y="80" width="20" height="20" fill="rgb(0,0,0)" opacity="1.0" /><polygon points="260,100 280,100 280,110 260,120" fill="rgb(0,0,0)" opacity="1.0" /><rect x="300" y="100" width="20" height="20" fill="rgb(0,0,0)" opacity="1.0" /><rect x="380" y="100" width="20" height="20" fill="rgb(0,0,0)" opacity="1.0" /><rect x="440" y="100" width="20" height="20" fill="rgb(0,0,0)" opacity="1.0" /><rect x="460" y="100" width="20" height="20" fill="rgb(0,0,0)" opacity="1.0" /><rect x="520" y="100" width="20" height="20" fill="rgb(0,0,0)" opacity="1.0" /><rect x="540" y="100" width="20" height="20" fill="rgb(0,0,0)" opacity="1.0" /><polygon points="560,100 570,100 580,120 560,120" fill="rgb(0,0,0)" opacity="1.0" /><polygon points="240,130 260,120 260,140 240,140" fill="rgb(0,0,0)" opacity="1.0" /><rect x="280" y="120" width="20" height="20" fill="rgb(0,0,0)" opacity="1.0" /><rect x="360" y="120" width="20" height="20" fill="rgb(0,0,0)" opacity="1.0" /><rect x="400" y="120" width="20" height="20" fill="rgb(0,0,0)" opacity="1.0" /><rect x="440" y="120" width="20" height="20" fill="rgb(0,0,0)" opacity="1.0" /><rect x="460" y="120" width="20" height="20" fill="rgb(0,0,0)" opacity="1.0" /><rect x="480" y="120" width="20" height="20" fill="rgb(0,0,0)" opacity="1.0" /><polygon points="540,120 560,120 560,130 540,140" fill="rgb(0,0,0)" opacity="1.0" /><rect x="240" y="140" width="20" height="20" fill="rgb(0,0,0)" opacity="1.0" /><rect x="260" y="140" width="20" height="20" fill="rgb(0,0,0)" opacity="1.0" /><rect x="320" y="140" width="20" height="20" fill="rgb(0,0,0)" opacity="1.0" /><polygon points="380,150 400,140 400,160 380,160" fill="rgb(0,0,0)" opacity="1.0" /><rect x="440" y="140" width="20" height="20" fill="rgb(0,0,0)" opacity="1.0" /><polygon points="480,140 500,140 500,150 480,160" fill="rgb(0,0,0)" opacity="1.0" /><rect x="520" y="140" width="20" height="20" fill="rgb(0,0,0)" opacity="1.0" /><rect x="240" y="160" width="20" height="20" fill="rgb(0,0,0)" opacity="1.0" /><rect x="260" y="160" width="20" height="20" fill="rgb(0,0,0)" opacity="1.0" /><rect x="280" y="160" width="20" height="20" fill="rgb(0,0,0)" opacity="1.0" /><polygon points="300,160 310,160 320,180 300,180" fill="rgb(0,0,0)" opacity="1.0" /><polygon points="360,160 380,160 380,180 370,180" fill="rgb(0,0,0)" opacity="1.0" /><rect x="380" y="160" width="20" height="20" fill="rgb(0,0,0)" opacity="1.0" /><polygon points="400,160 410,160 420,180 400,180" fill="rgb(0,0,0)" opacity="1.0" /><rect x="440" y="160" width="20" height="20" fill="rgb(0,0,0)" opacity="1.0" /><polygon points="460,160 470,160 480,180 460,180" fill="rgb(0,0,0)" opacity="1.0" /><rect x="500" y="160" width="20" height="20" fill="rgb(0,0,0)" opacity="1.0" /><polygon points="540,170 560,160 560,180 540,180" fill="rgb(0,0,0)" opacity="1.0" /><rect x="240" y="180" width="20" height="20" fill="rgb(0,0,0)" opacity="1.0" /><rect x="280" y="180" width="20" height="20" fill="rgb(0,0,0)" opacity="1.0" /><rect x="340" y="180" width="20" height="20" fill="rgb(0,0,0)" opacity="1.0" /><rect x="420" y="180" width="20" height="20" fill="rgb(0,0,0)" opacity="1.0" /><polygon points="480,190 500,180 500,200 480,200" fill="rgb(0,0,0)" opacity="1.0" /><rect x="520" y="180" width="20" height="20" fill="rgb(0,0,0)" opacity="1.0" /><rect x="540" y="180" width="20" height="20" fill="rgb(0,0,0)" opacity="1.0" /><rect x="560" y="180" width="20" height="20" fill="rgb(0,0,0)" opacity="1.0" /><rect x="240" y="200" width="20" height="20" fill="rgb(0,0,0)" opacity="1.0" /><polygon points="280,200 300,200 300,210 280,220" fill="rgb(0,0,0)" opacity="1.0" /><rect x="320" y="200" width="20" height="20" fill="rgb(0,0,0)" opacity="1.0" /><rect x="360" y="200" width="20" height="20" fill="rgb(0,0,0)" opacity="1.0" /><polygon points="400,210 420,200 420,220 400,220" fill="rgb(0,0,0)" opacity="1.0" /><polygon points="440,210 460,200 460,220 440,220" fill="rgb(0,0,0)" opacity="1.0" /><rect x="480" y="200" width="20" height="20" fill="rgb(0,0,0)" opacity="1.0" /><polygon points="520,200 540,200 540,210 520,220" fill="rgb(0,0,0)" opacity="1.0" /><polygon points="560,200 580,200 580,210 560,220" fill="rgb(0,0,0)" opacity="1.0" /><polygon points="240,220 260,220 260,230 240,240" fill="rgb(0,0,0)" opacity="1.0" /><polygon points="340,230 360,220 360,240 340,240" fill="rgb(0,0,0)" opacity="1.0" /><rect x="400" y="220" width="20" height="20" fill="rgb(0,0,0)" opacity="1.0" /><rect x="440" y="220" width="20" height="20" fill="rgb(0,0,0)" opacity="1.0" /><rect x="460" y="220" width="20" height="20" fill="rgb(0,0,0)" opacity="1.0" /><rect x="480" y="220" width="20" height="20" fill="rgb(0,0,0)" opacity="1.0" /><rect x="540" y="220" width="20" height="20" fill="rgb(0,0,0)" opacity="1.0" /><polygon points="80,250 100,240 100,260 80,260" fill="rgb(0,0,0)" opacity="1.0" /><rect x="120" y="240" width="20" height="20" fill="rgb(0,0,0)" opacity="1.0" /><rect x="140" y="240" width="20" height="20" fill="rgb(0,0,0)" opacity="1.0" /><rect x="160" y="240" width="20" height="20" fill="rgb(0,0,0)" opacity="1.0" /><rect x="180" y="240" width="20" height="20" fill="rgb(0,0,0)" opacity="1.0" /><polygon points="200,240 210,240 220,260 200,260" fill="rgb(0,0,0)" opacity="1.0" /><rect x="260" y="240" width="20" height="20" fill="rgb(0,0,0)" opacity="1.0" /><rect x="280" y="240" width="20" height="20" fill="rgb(0,0,0)" opacity="1.0" /><rect x="300" y="240" width="20" height="20" fill="rgb(0,0,0)" opacity="1.0" /><rect x="320" y="240" width="20" height="20" fill="rgb(0,0,0)" opacity="1.0" /><rect x="340" y="240" width="20" height="20" fill="rgb(0,0,0)" opacity="1.0" /><polygon points="360,240 370,240 380,260 360,260" fill="rgb(0,0,0)" opacity="1.0" /><rect x="400" y="240" width="20" height="20" fill="rgb(0,0,0)" opacity="1.0" /><polygon points="520,250 540,240 540,260 520,260" fill="rgb(0,0,0)" opacity="1.0" /><rect x="560" y="240" width="20" height="20" fill="rgb(0,0,0)" opacity="1.0" /><rect x="600" y="240" width="20" height="20" fill="rgb(0,0,0)" opacity="1.0" /><rect x="620" y="240" width="20" height="20" fill="rgb(0,0,0)" opacity="1.0" /><rect x="640" y="240" width="20" height="20" fill="rgb(0,0,0)" opacity="1.0" /><rect x="660" y="240" width="20" height="20" fill="rgb(0,0,0)" opacity="1.0" /><rect x="680" y="240" width="20" height="20" fill="rgb(0,0,0)" opacity="1.0" /><rect x="80" y="260" width="20" height="20" fill="rgb(0,0,0)" opacity="1.0" /><rect x="100" y="260" width="20" height="20" fill="rgb(0,0,0)" opacity="1.0" /><rect x="120" y="260" width="20" height="20" fill="rgb(0,0,0)" opacity="1.0" /><polygon points="160,260 180,260 180,270 160,280" fill="rgb(0,0,0)" opacity="1.0" /><polygon points="220,270 240,260 240,280 220,280" fill="rgb(0,0,0)" opacity="1.0" /><polygon points="260,260 280,260 280,270 260,280" fill="rgb(0,0,0)" opacity="1.0" /><rect x="320" y="260" width="20" height="20" fill="rgb(0,0,0)" opacity="1.0" /><rect x="340" y="260" width="20" height="20" fill="rgb(0,0,0)" opacity="1.0" /><rect x="380" y="260" width="20" height="20" fill="rgb(0,0,0)" opacity="1.0" /><rect x="400" y="260" width="20" height="20" fill="rgb(0,0,0)" opacity="1.0" /><rect x="420" y="260" width="20" height="20" fill="rgb(0,0,0)" opacity="1.0" /><polygon points="480,260 500,260 500,280 490,280" fill="rgb(0,0,0)" opacity="1.0" /><rect x="500" y="260" width="20" height="20" fill="rgb(0,0,0)" opacity="1.0" /><rect x="520" y="260" width="20" height="20" fill="rgb(0,0,0)" opacity="1.0" /><rect x="600" y="260" width="20" height="20" fill="rgb(0,0,0)" opacity="1.0" /><rect x="620" y="260" width="20" height="20" fill="rgb(0,0,0)" opacity="1.0" /><rect x="640" y="260" width="20" height="20" fill="rgb(0,0,0)" opacity="1.0" /><rect x="660" y="260" width="20" height="20" fill="rgb(0,0,0)" opacity="1.0" /><rect x="680" y="260" width="20" height="20" fill="rgb(0,0,0)" opacity="1.0" /><rect x="700" y="260" width="20" height="20" fill="rgb(0,0,0)" opacity="1.0" /><rect x="720" y="260" width="20" height="20" fill="rgb(0,0,0)" opacity="1.0" /><rect x="80" y="280" width="20" height="20" fill="rgb(0,0,0)" opacity="1.0" /><rect x="100" y="280" width="20" height="20" fill="rgb(0,0,0)" opacity="1.0" /><rect x="140" y="280" width="20" height="20" fill="rgb(0,0,0)" opacity="1.0" /><polygon points="200,280 220,280 220,300 210,300" fill="rgb(0,0,0)" opacity="1.0" /><rect x="220" y="280" width="20" height="20" fill="rgb(0,0,0)" opacity="1.0" /><polygon points="240,280 250,280 260,300 240,300" fill="rgb(0,0,0)" opacity="1.0" /><rect x="280" y="280" width="20" height="20" fill="rgb(0,0,0)" opacity="1.0" /><polygon points="300,280 310,280 320,300 300,300" fill="rgb(0,0,0)" opacity="1.0" /><rect x="340" y="280" width="20" height="20" fill="rgb(0,0,0)" opacity="1.0" /><rect x="360" y="280" width="20" height="20" fill="rgb(0,0,0)" opacity="1.0" /><rect x="380" y="280" width="20" height="20" fill="rgb(0,0,0)" opacity="1.0" /><rect x="400" y="280" width="20" height="20" fill="rgb(0,0,0)" opacity="1.0" /><rect x="420" y="280" width="20" height="20" fill="rgb(0,0,0)" opacity="1.0" /><rect x="580" y="280" width="20" height="20" fill="rgb(0,0,0)" opacity="1.0" /><polygon points="640,280 660,280 660,290 640,300" fill="rgb(0,0,0)" opacity="1.0" /><rect x="700" y="280" width="20" height="20" fill="rgb(0,0,0)" opacity="1.0" /><rect x="720" y="280" width="20" height="20" fill="rgb(0,0,0)" opacity="1.0" /><rect x="100" y="300" width="20" height="20" fill="rgb(0,0,0)" opacity="1.0" /><rect x="160" y="300" width="20" height="20" fill="rgb(0,0,0)" opacity="1.0" /><rect x="180" y="300" width="20" height="20" fill="rgb(0,0,0)" opacity="1.0" /><rect x="280" y="300" width="20" height="20" fill="rgb(0,0,0)" opacity="1.0" /><polygon points="340,300 360,300 360,310 340,320" fill="rgb(0,0,0)" opacity="1.0" /><rect x="400" y="300" width="20" height="20" fill="rgb(0,0,0)" opacity="1.0" /><rect x="420" y="300" width="20" height="20" fill="rgb(0,0,0)" opacity="1.0" /><rect x="440" y="300" width="20" height="20" fill="rgb(0,0,0)" opacity="1.0" /><rect x="460" y="300" width="20" height="20" fill="rgb(0,0,0)" opacity="1.0" /><rect x="480" y="300" width="20" height="20" fill="rgb(0,0,0)" opacity="1.0" /><polygon points="500,300 510,300 520,320 500,320" fill="rgb(0,0,0)" opacity="1.0" /><rect x="540" y="300" width="20" height="20" fill="rgb(0,0,0)" opacity="1.0" /><rect x="600" y="300" width="20" height="20" fill="rgb(0,0,0)" opacity="1.0" /><polygon points="620,300 630,300 640,320 620,320" fill="rgb(0,0,0)" opacity="1.0" /><polygon points="720,300 740,300 740,310 720,320" fill="rgb(0,0,0)" opacity="1.0" /><rect x="80" y="320" width="20" height="20" fill="rgb(0,0,0)" opacity="1.0" /><rect x="100" y="320" width="20" height="20" fill="rgb(0,0,0)" opacity="1.0" /><rect x="160" y="320" width="20" height="20" fill="rgb(0,0,0)" opacity="1.0" /><rect x="180" y="320" width="20" height="20" fill="rgb(0,0,0)" opacity="1.0" /><polygon points="200,320 210,320 220,340 200,340" fill="rgb(0,0,0)" opacity="1.0" /><rect x="260" y="320" width="20" height="20" fill="rgb(0,0,0)" opacity="1.0" /><rect x="280" y="320" width="20" height="20" fill="rgb(0,0,0)" opacity="1.0" /><rect x="300" y="320" width="20" height="20" fill="rgb(0,0,0)" opacity="1.0" /><polygon points="360,320 380,320 380,340 370,340" fill="rgb(0,0,0)" opacity="1.0" /><rect x="380" y="320" width="20" height="20" fill="rgb(0,0,0)" opacity="1.0" /><rect x="400" y="320" width="20" height="20" fill="rgb(0,0,0)" opacity="1.0" /><polygon points="480,320 500,320 500,330 480,340" fill="rgb(0,0,0)" opacity="1.0" /><polygon points="580,320 600,320 600,340 590,340" fill="rgb(0,0,0)" opacity="1.0" /><rect x="600" y="320" width="20" height="20" fill="rgb(0,0,0)" opacity="1.0" /><polygon points="680,330 700,320 700,340 680,340" fill="rgb(0,0,0)" opacity="1.0" /><rect x="80" y="340" width="20" height="20" fill="rgb(0,0,0)" opacity="1.0" /><rect x="100" y="340" width="20" height="20" fill="rgb(0,0,0)" opacity="1.0" /><rect x="120" y="340" width="20" height="20" fill="rgb(0,0,0)" opacity="1.0" /><rect x="140" y="340" width="20" height="20" fill="rgb(0,0,0)" opacity="1.0" /><polygon points="180,340 200,340 200,350 180,360" fill="rgb(0,0,0)" opacity="1.0" /><polygon points="240,340 260,340 260,360 250,360" fill="rgb(0,0,0)" opacity="1.0" /><rect x="260" y="340" width="20" height="20" fill="rgb(0,0,0)" opacity="1.0" /><polygon points="300,340 320,340 320,350 300,360" fill="rgb(0,0,0)" opacity="1.0" /><rect x="340" y="340" width="20" height="20" fill="rgb(0,0,0)" opacity="1.0" /><rect x="380" y="340" width="20" height="20" fill="rgb(0,0,0)" opacity="1.0" /><rect x="440" y="340" width="20" height="20" fill="rgb(0,0,0)" opacity="1.0" /><rect x="460" y="340" width="20" height="20" fill="rgb(0,0,0)" opacity="1.0" /><polygon points="500,340 520,340 520,360 510,360" fill="rgb(0,0,0)" opacity="1.0" /><rect x="520" y="340" width="20" height="20" fill="rgb(0,0,0)" opacity="1.0" /><polygon points="560,350 580,340 580,360 560,360" fill="rgb(0,0,0)" opacity="1.0" /><polygon points="600,340 620,340 620,350 600,360" fill="rgb(0,0,0)" opacity="1.0" /><rect x="660" y="340" width="20" height="20" fill="rgb(0,0,0)" opacity="1.0" /><rect x="680" y="340" width="20" height="20" fill="rgb(0,0,0)" opacity="1.0" /><rect x="700" y="340" width="20" height="20" fill="rgb(0,0,0)" opacity="1.0" /><polygon points="720,340 730,340 740,360 720,360" fill="rgb(0,0,0)" opacity="1.0" /><polygon points="80,360 100,360 100,370 80,380" fill="rgb(0,0,0)" opacity="1.0" /><rect x="140" y="360" width="20" height="20" fill="rgb(0,0,0)" opacity="1.0" /><rect x="160" y="360" width="20" height="20" fill="rgb(0,0,0)" opacity="1.0" /><rect x="200" y="360" width="20" height="20" fill="rgb(0,0,0)" opacity="1.0" /><rect x="260" y="360" width="20" height="20" fill="rgb(0,0,0)" opacity="1.0" /><rect x="380" y="360" width="20" height="20" fill="rgb(0,0,0)" opacity="1.0" /><rect x="400" y="360" width="20" height="20" fill="rgb(0,0,0)" opacity="1.0" /><rect x="420" y="360" width="20" height="20" fill="rgb(0,0,0)" opacity="1.0" /><rect x="440" y="360" width="20" height="20" fill="rgb(0,0,0)" opacity="1.0" /><rect x="460" y="360" width="20" height="20" fill="rgb(0,0,0)" opacity="1.0" /><rect x="520" y="360" width="20" height="20" fill="rgb(0,0,0)" opacity="1.0" /><rect x="540" y="360" width="20" height="20" fill="rgb(0,0,0)" opacity="1.0" /><rect x="560" y="360" width="20" height="20" fill="rgb(0,0,0)" opacity="1.0" /><polygon points="620,360 640,360 640,380 630,380" fill="rgb(0,0,0)" opacity="1.0" /><rect x="640" y="360" width="20" height="20" fill="rgb(0,0,0)" opacity="1.0" /><rect x="660" y="360" width="20" height="20" fill="rgb(0,0,0)" opacity="1.0" /><polygon points="120,390 140,380 140,400 120,400" fill="rgb(0,0,0)" opacity="1.0" /><polygon points="160,380 180,380 180,390 160,400" fill="rgb(0,0,0)" opacity="1.0" /><rect x="260" y="380" width="20" height="20" fill="rgb(0,0,0)" opacity="1.0" /><rect x="320" y="380" width="20" height="20" fill="rgb(0,0,0)" opacity="1.0" /><rect x="340" y="380" width="20" height="20" fill="rgb(0,0,0)" opacity="1.0" /><rect x="380" y="380" width="20" height="20" fill="rgb(0,0,0)" opacity="1.0" /><rect x="420" y="380" width="20" height="20" fill="rgb(0,0,0)" opacity="1.0" /><rect x="440" y="380" width="20" height="20" fill="rgb(0,0,0)" opacity="1.0" /><rect x="460" y="380" width="20" height="20" fill="rgb(0,0,0)" opacity="1.0" /><polygon points="480,380 490,380 500,400 480,400" fill="rgb(0,0,0)" opacity="1.0" /><polygon points="540,380 560,380 560,390 540,400" fill="rgb(0,0,0)" opacity="1.0" /><polygon points="600,390 620,380 620,400 600,400" fill="rgb(0,0,0)" opacity="1.0" /><rect x="680" y="380" width="20" height="20" fill="rgb(0,0,0)" opacity="1.0" /><rect x="700" y="380" width="20" height="20" fill="rgb(0,0,0)" opacity="1.0" /><polygon points="720,380 730,380 740,400 720,400" fill="rgb(0,0,0)" opacity="1.0" /><polygon points="120,400 140,400 140,410 120,420" fill="rgb(0,0,0)" opacity="1.0" /><rect x="180" y="400" width="20" height="20" fill="rgb(0,0,0)" opacity="1.0" /><rect x="200" y="400" width="20" height="20" fill="rgb(0,0,0)" opacity="1.0" /><rect x="220" y="400" width="20" height="20" fill="rgb(0,0,0)" opacity="1.0" /><rect x="260" y="400" width="20" height="20" fill="rgb(0,0,0)" opacity="1.0" /><rect x="300" y="400" width="20" height="20" fill="rgb(0,0,0)" opacity="1.0" /><rect x="320" y="400" width="20" height="20" fill="rgb(0,0,0)" opacity="1.0" /><rect x="340" y="400" width="20" height="20" fill="rgb(0,0,0)" opacity="1.0" /><rect x="380" y="400" width="20" height="20" fill="rgb(0,0,0)" opacity="1.0" /><polygon points="420,400 440,400 440,410 420,420" fill="rgb(0,0,0)" opacity="1.0" /><rect x="500" y="400" width="20" height="20" fill="rgb(0,0,0)" opacity="1.0" /><polygon points="520,400 530,400 540,420 520,420" fill="rgb(0,0,0)" opacity="1.0" /><rect x="560" y="400" width="20" height="20" fill="rgb(0,0,0)" opacity="1.0" /><rect x="580" y="400" width="20" height="20" fill="rgb(0,0,0)" opacity="1.0" /><rect x="600" y="400" width="20" height="20" fill="rgb(0,0,0)" opacity="1.0" /><rect x="640" y="400" width="20" height="20" fill="rgb(0,0,0)" opacity="1.0" /><rect x="680" y="400" width="20" height="20" fill="rgb(0,0,0)" opacity="1.0" /><polygon points="100,430 120,420 120,440 100,440" fill="rgb(0,0,0)" opacity="1.0" /><rect x="140" y="420" width="20" height="20" fill="rgb(0,0,0)" opacity="1.0" /><polygon points="180,420 200,420 200,430 180,440" fill="rgb(0,0,0)" opacity="1.0" /><rect x="220" y="420" width="20" height="20" fill="rgb(0,0,0)" opacity="1.0" /><rect x="260" y="420" width="20" height="20" fill="rgb(0,0,0)" opacity="1.0" /><rect x="300" y="420" width="20" height="20" fill="rgb(0,0,0)" opacity="1.0" /><rect x="320" y="420" width="20" height="20" fill="rgb(0,0,0)" opacity="1.0" /><rect x="340" y="420" width="20" height="20" fill="rgb(0,0,0)" opacity="1.0" /><rect x="360" y="420" width="20" height="20" fill="rgb(0,0,0)" opacity="1.0" /><rect x="380" y="420" width="20" height="20" fill="rgb(0,0,0)" opacity="1.0" /><rect x="440" y="420" width="20" height="20" fill="rgb(0,0,0)" opacity="1.0" /><rect x="460" y="420" width="20" height="20" fill="rgb(0,0,0)" opacity="1.0" /><rect x="480" y="420" width="20" height="20" fill="rgb(0,0,0)" opacity="1.0" /><rect x="500" y="420" width="20" height="20" fill="rgb(0,0,0)" opacity="1.0" /><polygon points="540,420 560,420 560,440 550,440" fill="rgb(0,0,0)" opacity="1.0" /><rect x="560" y="420" width="20" height="20" fill="rgb(0,0,0)" opacity="1.0" /><rect x="580" y="420" width="20" height="20" fill="rgb(0,0,0)" opacity="1.0" /><rect x="600" y="420" width="20" height="20" fill="rgb(0,0,0)" opacity="1.0" /><polygon points="620,420 630,420 640,440 620,440" fill="rgb(0,0,0)" opacity="1.0" /><rect x="660" y="420" width="20" height="20" fill="rgb(0,0,0)" opacity="1.0" /><rect x="680" y="420" width="20" height="20" fill="rgb(0,0,0)" opacity="1.0" /><rect x="700" y="420" width="20" height="20" fill="rgb(0,0,0)" opacity="1.0" /><rect x="720" y="420" width="20" height="20" fill="rgb(0,0,0)" opacity="1.0" /><rect x="80" y="440" width="20" height="20" fill="rgb(0,0,0)" opacity="1.0" /><rect x="100" y="440" width="20" height="20" fill="rgb(0,0,0)" opacity="1.0" /><polygon points="160,450 180,440 180,460 160,460" fill="rgb(0,0,0)" opacity="1.0" /><polygon points="200,440 220,440 220,460 210,460" fill="rgb(0,0,0)" opacity="1.0" /><rect x="220" y="440" width="20" height="20" fill="rgb(0,0,0)" opacity="1.0" /><rect x="240" y="440" width="20" height="20" fill="rgb(0,0,0)" opacity="1.0" /><rect x="260" y="440" width="20" height="20" fill="rgb(0,0,0)" opacity="1.0" /><rect x="340" y="440" width="20" height="20" fill="rgb(0,0,0)" opacity="1.0" /><rect x="360" y="440" width="20" height="20" fill="rgb(0,0,0)" opacity="1.0" /><rect x="440" y="440" width="20" height="20" fill="rgb(0,0,0)" opacity="1.0" /><rect x="460" y="440" width="20" height="20" fill="rgb(0,0,0)" opacity="1.0" /><polygon points="520,450 540,440 540,460 520,460" fill="rgb(0,0,0)" opacity="1.0" /><rect x="560" y="440" width="20" height="20" fill="rgb(0,0,0)" opacity="1.0" /><rect x="580" y="440" width="20" height="20" fill="rgb(0,0,0)" opacity="1.0" /><polygon points="640,440 660,440 660,460 650,460" fill="rgb(0,0,0)" opacity="1.0" /><rect x="660" y="440" width="20" height="20" fill="rgb(0,0,0)" opacity="1.0" /><rect x="700" y="440" width="20" height="20" fill="rgb(0,0,0)" opacity="1.0" /><rect x="720" y="440" width="20" height="20" fill="rgb(0,0,0)" opacity="1.0" /><polygon points="80,460 100,460 100,470 80,480" fill="rgb(0,0,0)" opacity="1.0" /><rect x="120" y="460" width="20" height="20" fill="rgb(0,0,0)" opacity="1.0" /><rect x="140" y="460" width="20" height="20" fill="rgb(0,0,0)" opacity="1.0" /><rect x="160" y="460" width="20" height="20" fill="rgb(0,0,0)" opacity="1.0" /><rect x="220" y="460" width="20" height="20" fill="rgb(0,0,0)" opacity="1.0" /><rect x="240" y="460" width="20" height="20" fill="rgb(0,0,0)" opacity="1.0" /><rect x="400" y="460" width="20" height="20" fill="rgb(0,0,0)" opacity="1.0" /><rect x="460" y="460" width="20" height="20" fill="rgb(0,0,0)" opacity="1.0" /><rect x="480" y="460" width="20" height="20" fill="rgb(0,0,0)" opacity="1.0" /><rect x="500" y="460" width="20" height="20" fill="rgb(0,0,0)" opacity="1.0" /><rect x="520" y="460" width="20" height="20" fill="rgb(0,0,0)" opacity="1.0" /><polygon points="540,460 550,460 560,480 540,480" fill="rgb(0,0,0)" opacity="1.0" /><rect x="580" y="460" width="20" height="20" fill="rgb(0,0,0)" opacity="1.0" /><polygon points="600,460 610,460 620,480 600,480" fill="rgb(0,0,0)" opacity="1.0" /><rect x="660" y="460" width="20" height="20" fill="rgb(0,0,0)" opacity="1.0" /><rect x="680" y="460" width="20" height="20" fill="rgb(0,0,0)" opacity="1.0" /><polygon points="720,460 740,460 740,470 720,480" fill="rgb(0,0,0)" opacity="1.0" /><rect x="120" y="480" width="20" height="20" fill="rgb(0,0,0)" opacity="1.0" /><rect x="140" y="480" width="20" height="20" fill="rgb(0,0,0)" opacity="1.0" /><polygon points="180,480 200,480 200,500 190,500" fill="rgb(0,0,0)" opacity="1.0" /><polygon points="200,480 210,480 220,500 200,500" fill="rgb(0,0,0)" opacity="1.0" /><rect x="260" y="480" width="20" height="20" fill="rgb(0,0,0)" opacity="1.0" /><rect x="280" y="480" width="20" height="20" fill="rgb(0,0,0)" opacity="1.0" /><polygon points="320,490 340,480 340,500 320,500" fill="rgb(0,0,0)" opacity="1.0" /><polygon points="360,480 380,480 380,500 370,500" fill="rgb(0,0,0)" opacity="1.0" /><rect x="380" y="480" width="20" height="20" fill="rgb(0,0,0)" opacity="1.0" /><rect x="440" y="480" width="20" height="20" fill="rgb(0,0,0)" opacity="1.0" /><rect x="500" y="480" width="20" height="20" fill="rgb(0,0,0)" opacity="1.0" /><rect x="520" y="480" width="20" height="20" fill="rgb(0,0,0)" opacity="1.0" /><polygon points="560,480 580,480 580,500 570,500" fill="rgb(0,0,0)" opacity="1.0" /><rect x="580" y="480" width="20" height="20" fill="rgb(0,0,0)" opacity="1.0" /><rect x="640" y="480" width="20" height="20" fill="rgb(0,0,0)" opacity="1.0" /><rect x="680" y="480" width="20" height="20" fill="rgb(0,0,0)" opacity="1.0" /><polygon points="700,480 710,480 720,500 700,500" fill="rgb(0,0,0)" opacity="1.0" /><polygon points="80,510 100,500 100,520 80,520" fill="rgb(0,0,0)" opacity="1.0" /><rect x="120" y="500" width="20" height="20" fill="rgb(0,0,0)" opacity="1.0" /><rect x="140" y="500" width="20" height="20" fill="rgb(0,0,0)" opacity="1.0" /><polygon points="160,500 170,500 180,520 160,520" fill="rgb(0,0,0)" opacity="1.0" /><polygon points="240,500 260,500 260,520 250,520" fill="rgb(0,0,0)" opacity="1.0" /><rect x="260" y="500" width="20" height="20" fill="rgb(0,0,0)" opacity="1.0" /><rect x="280" y="500" width="20" height="20" fill="rgb(0,0,0)" opacity="1.0" /><rect x="320" y="500" width="20" height="20" fill="rgb(0,0,0)" opacity="1.0" /><rect x="340" y="500" width="20" height="20" fill="rgb(0,0,0)" opacity="1.0" /><rect x="380" y="500" width="20" height="20" fill="rgb(0,0,0)" opacity="1.0" /><polygon points="400,500 410,500 420,520 400,520" fill="rgb(0,0,0)" opacity="1.0" /><rect x="460" y="500" width="20" height="20" fill="rgb(0,0,0)" opacity="1.0" /><rect x="480" y="500" width="20" height="20" fill="rgb(0,0,0)" opacity="1.0" /><rect x="500" y="500" width="20" height="20" fill="rgb(0,0,0)" opacity="1.0" /><rect x="620" y="500" width="20" height="20" fill="rgb(0,0,0)" opacity="1.0" /><rect x="660" y="500" width="20" height="20" fill="rgb(0,0,0)" opacity="1.0" /><rect x="680" y="500" width="20" height="20" fill="rgb(0,0,0)" opacity="1.0" /><rect x="80" y="520" width="20" height="20" fill="rgb(0,0,0)" opacity="1.0" /><rect x="120" y="520" width="20" height="20" fill="rgb(0,0,0)" opacity="1.0" /><rect x="140" y="520" width="20" height="20" fill="rgb(0,0,0)" opacity="1.0" /><polygon points="180,520 200,520 200,540 190,540" fill="rgb(0,0,0)" opacity="1.0" /><rect x="200" y="520" width="20" height="20" fill="rgb(0,0,0)" opacity="1.0" /><rect x="220" y="520" width="20" height="20" fill="rgb(0,0,0)" opacity="1.0" /><rect x="340" y="520" width="20" height="20" fill="rgb(0,0,0)" opacity="1.0" /><rect x="360" y="520" width="20" height="20" fill="rgb(0,0,0)" opacity="1.0" /><rect x="420" y="520" width="20" height="20" fill="rgb(0,0,0)" opacity="1.0" /><rect x="460" y="520" width="20" height="20" fill="rgb(0,0,0)" opacity="1.0" /><polygon points="520,530 540,520 540,540 520,540" fill="rgb(0,0,0)" opacity="1.0" /><polygon points="640,520 660,520 660,540 650,540" fill="rgb(0,0,0)" opacity="1.0" /><rect x="660" y="520" width="20" height="20" fill="rgb(0,0,0)" opacity="1.0" /><rect x="700" y="520" width="20" height="20" fill="rgb(0,0,0)" opacity="1.0" /><rect x="80" y="540" width="20" height="20" fill="rgb(0,0,0)" opacity="1.0" /><rect x="120" y="540" width="20" height="20" fill="rgb(0,0,0)" opacity="1.0" /><rect x="140" y="540" width="20" height="20" fill="rgb(0,0,0)" opacity="1.0" /><rect x="220" y="540" width="20" height="20" fill="rgb(0,0,0)" opacity="1.0" /><rect x="240" y="540" width="20" height="20" fill="rgb(0,0,0)" opacity="1.0" /><rect x="260" y="540" width="20" height="20" fill="rgb(0,0,0)" opacity="1.0" /><rect x="280" y="540" width="20" height="20" fill="rgb(0,0,0)" opacity="1.0" /><rect x="300" y="540" width="20" height="20" fill="rgb(0,0,0)" opacity="1.0" /><rect x="360" y="540" width="20" height="20" fill="rgb(0,0,0)" opacity="1.0" /><rect x="400" y="540" width="20" height="20" fill="rgb(0,0,0)" opacity="1.0" /><polygon points="440,540 460,540 460,560 450,560" fill="rgb(0,0,0)" opacity="1.0" /><rect x="460" y="540" width="20" height="20" fill="rgb(0,0,0)" opacity="1.0" /><rect x="480" y="540" width="20" height="20" fill="rgb(0,0,0)" opacity="1.0" /><rect x="500" y="540" width="20" height="20" fill="rgb(0,0,0)" opacity="1.0" /><rect x="520" y="540" width="20" height="20" fill="rgb(0,0,0)" opacity="1.0" /><polygon points="540,540 550,540 560,560 540,560" fill="rgb(0,0,0)" opacity="1.0" /><polygon points="600,550 620,540 620,560 600,560" fill="rgb(0,0,0)" opacity="1.0" /><rect x="680" y="540" width="20" height="20" fill="rgb(0,0,0)" opacity="1.0" /><polygon points="720,550 740,540 740,560 720,560" fill="rgb(0,0,0)" opacity="1.0" /><polygon points="80,560 100,560 100,570 80,580" fill="rgb(0,0,0)" opacity="1.0" /><rect x="160" y="560" width="20" height="20" fill="rgb(0,0,0)" opacity="1.0" /><rect x="200" y="560" width="20" height="20" fill="rgb(0,0,0)" opacity="1.0" /><rect x="300" y="560" width="20" height="20" fill="rgb(0,0,0)" opacity="1.0" /><rect x="320" y="560" width="20" height="20" fill="rgb(0,0,0)" opacity="1.0" /><rect x="360" y="560" width="20" height="20" fill="rgb(0,0,0)" opacity="1.0" /><polygon points="420,570 440,560 440,580 420,580" fill="rgb(0,0,0)" opacity="1.0" /><rect x="480" y="560" width="20" height="20" fill="rgb(0,0,0)" opacity="1.0" /><rect x="560" y="560" width="20" height="20" fill="rgb(0,0,0)" opacity="1.0" /><rect x="580" y="560" width="20" height="20" fill="rgb(0,0,0)" opacity="1.0" /><rect x="600" y="560" width="20" height="20" fill="rgb(0,0,0)" opacity="1.0" /><rect x="620" y="560" width="20" height="20" fill="rgb(0,0,0)" opacity="1.0" /><rect x="640" y="560" width="20" height="20" fill="rgb(0,0,0)" opacity="1.0" /><polygon points="720,560 740,560 740,570 720,580" fill="rgb(0,0,0)" opacity="1.0" /><polygon points="240,580 260,580 260,600 250,600" fill="rgb(0,0,0)" opacity="1.0" /><rect x="260" y="580" width="20" height="20" fill="rgb(0,0,0)" opacity="1.0" /><rect x="280" y="580" width="20" height="20" fill="rgb(0,0,0)" opacity="1.0" /><rect x="300" y="580" width="20" height="20" fill="rgb(0,0,0)" opacity="1.0" /><rect x="320" y="580" width="20" height="20" fill="rgb(0,0,0)" opacity="1.0" /><rect x="360" y="580" width="20" height="20" fill="rgb(0,0,0)" opacity="1.0" /><rect x="380" y="580" width="20" height="20" fill="rgb(0,0,0)" opacity="1.0" /><rect x="400" y="580" width="20" height="20" fill="rgb(0,0,0)" opacity="1.0" /><rect x="420" y="580" width="20" height="20" fill="rgb(0,0,0)" opacity="1.0" /><rect x="480" y="580" width="20" height="20" fill="rgb(0,0,0)" opacity="1.0" /><rect x="500" y="580" width="20" height="20" fill="rgb(0,0,0)" opacity="1.0" /><rect x="520" y="580" width="20" height="20" fill="rgb(0,0,0)" opacity="1.0" /><rect x="560" y="580" width="20" height="20" fill="rgb(0,0,0)" opacity="1.0" /><rect x="640" y="580" width="20" height="20" fill="rgb(0,0,0)" opacity="1.0" /><rect x="660" y="580" width="20" height="20" fill="rgb(0,0,0)" opacity="1.0" /><rect x="680" y="580" width="20" height="20" fill="rgb(0,0,0)" opacity="1.0" /><polygon points="700,580 710,580 720,600 700,600" fill="rgb(0,0,0)" opacity="1.0" /><rect x="320" y="600" width="20" height="20" fill="rgb(0,0,0)" opacity="1.0" /><rect x="340" y="600" width="20" height="20" fill="rgb(0,0,0)" opacity="1.0" /><rect x="380" y="600" width="20" height="20" fill="rgb(0,0,0)" opacity="1.0" /><rect x="400" y="600" width="20" height="20" fill="rgb(0,0,0)" opacity="1.0" /><rect x="420" y="600" width="20" height="20" fill="rgb(0,0,0)" opacity="1.0" /><rect x="480" y="600" width="20" height="20" fill="rgb(0,0,0)" opacity="1.0" /><polygon points="520,600 540,600 540,610 520,620" fill="rgb(0,0,0)" opacity="1.0" /><rect x="560" y="600" width="20" height="20" fill="rgb(0,0,0)" opacity="1.0" /><rect x="600" y="600" width="20" height="20" fill="rgb(0,0,0)" opacity="1.0" /><rect x="640" y="600" width="20" height="20" fill="rgb(0,0,0)" opacity="1.0" /><rect x="660" y="600" width="20" height="20" fill="rgb(0,0,0)" opacity="1.0" /><polygon points="720,610 740,600 740,620 720,620" fill="rgb(0,0,0)" opacity="1.0" /><polygon points="240,630 260,620 260,640 240,640" fill="rgb(0,0,0)" opacity="1.0" /><polygon points="300,630 320,620 320,640 300,640" fill="rgb(0,0,0)" opacity="1.0" /><rect x="340" y="620" width="20" height="20" fill="rgb(0,0,0)" opacity="1.0" /><rect x="360" y="620" width="20" height="20" fill="rgb(0,0,0)" opacity="1.0" /><rect x="400" y="620" width="20" height="20" fill="rgb(0,0,0)" opacity="1.0" /><rect x="420" y="620" width="20" height="20" fill="rgb(0,0,0)" opacity="1.0" /><rect x="440" y="620" width="20" height="20" fill="rgb(0,0,0)" opacity="1.0" /><rect x="460" y="620" width="20" height="20" fill="rgb(0,0,0)" opacity="1.0" /><rect x="480" y="620" width="20" height="20" fill="rgb(0,0,0)" opacity="1.0" /><polygon points="540,620 560,620 560,640 550,640" fill="rgb(0,0,0)" opacity="1.0" /><rect x="560" y="620" width="20" height="20" fill="rgb(0,0,0)" opacity="1.0" /><rect x="640" y="620" width="20" height="20" fill="rgb(0,0,0)" opacity="1.0" /><rect x="660" y="620" width="20" height="20" fill="rgb(0,0,0)" opacity="1.0" /><rect x="680" y="620" width="20" height="20" fill="rgb(0,0,0)" opacity="1.0" /><polygon points="720,620 740,620 740,630 720,640" fill="rgb(0,0,0)" opacity="1.0" /><rect x="240" y="640" width="20" height="20" fill="rgb(0,0,0)" opacity="1.0" /><polygon points="280,640 300,640 300,660 290,660" fill="rgb(0,0,0)" opacity="1.0" /><rect x="300" y="640" width="20" height="20" fill="rgb(0,0,0)" opacity="1.0" /><rect x="340" y="640" width="20" height="20" fill="rgb(0,0,0)" opacity="1.0" /><rect x="360" y="640" width="20" height="20" fill="rgb(0,0,0)" opacity="1.0" /><rect x="380" y="640" width="20" height="20" fill="rgb(0,0,0)" opacity="1.0" /><rect x="400" y="640" width="20" height="20" fill="rgb(0,0,0)" opacity="1.0" /><rect x="480" y="640" width="20" height="20" fill="rgb(0,0,0)" opacity="1.0" /><rect x="500" y="640" width="20" height="20" fill="rgb(0,0,0)" opacity="1.0" /><rect x="560" y="640" width="20" height="20" fill="rgb(0,0,0)" opacity="1.0" /><rect x="580" y="640" width="20" height="20" fill="rgb(0,0,0)" opacity="1.0" /><rect x="600" y="640" width="20" height="20" fill="rgb(0,0,0)" opacity="1.0" /><rect x="620" y="640" width="20" height="20" fill="rgb(0,0,0)" opacity="1.0" /><rect x="640" y="640" width="20" height="20" fill="rgb(0,0,0)" opacity="1.0" /><rect x="680" y="640" width="20" height="20" fill="rgb(0,0,0)" opacity="1.0" /><rect x="700" y="640" width="20" height="20" fill="rgb(0,0,0)" opacity="1.0" /><rect x="240" y="660" width="20" height="20" fill="rgb(0,0,0)" opacity="1.0" /><rect x="300" y="660" width="20" height="20" fill="rgb(0,0,0)" opacity="1.0" /><polygon points="320,660 330,660 340,680 320,680" fill="rgb(0,0,0)" opacity="1.0" /><rect x="380" y="660" width="20" height="20" fill="rgb(0,0,0)" opacity="1.0" /><rect x="440" y="660" width="20" height="20" fill="rgb(0,0,0)" opacity="1.0" /><polygon points="500,660 520,660 520,670 500,680" fill="rgb(0,0,0)" opacity="1.0" /><rect x="580" y="660" width="20" height="20" fill="rgb(0,0,0)" opacity="1.0" /><rect x="600" y="660" width="20" height="20" fill="rgb(0,0,0)" opacity="1.0" /><rect x="620" y="660" width="20" height="20" fill="rgb(0,0,0)" opacity="1.0" /><polygon points="660,660 680,660 680,680 670,680" fill="rgb(0,0,0)" opacity="1.0" /><rect x="680" y="660" width="20" height="20" fill="rgb(0,0,0)" opacity="1.0" /><rect x="700" y="660" width="20" height="20" fill="rgb(0,0,0)" opacity="1.0" /><polygon points="240,680 260,680 260,690 240,700" fill="rgb(0,0,0)" opacity="1.0" /><rect x="280" y="680" width="20" height="20" fill="rgb(0,0,0)" opacity="1.0" /><rect x="300" y="680" width="20" height="20" fill="rgb(0,0,0)" opacity="1.0" /><rect x="360" y="680" width="20" height="20" fill="rgb(0,0,0)" opacity="1.0" /><rect x="380" y="680" width="20" height="20" fill="rgb(0,0,0)" opacity="1.0" /><rect x="400" y="680" width="20" height="20" fill="rgb(0,0,0)" opacity="1.0" /><rect x="420" y="680" width="20" height="20" fill="rgb(0,0,0)" opacity="1.0" /><polygon points="520,680 540,680 540,700 530,700" fill="rgb(0,0,0)" opacity="1.0" /><rect x="540" y="680" width="20" height="20" fill="rgb(0,0,0)" opacity="1.0" /><rect x="560" y="680" width="20" height="20" fill="rgb(0,0,0)" opacity="1.0" /><rect x="580" y="680" width="20" height="20" fill="rgb(0,0,0)" opacity="1.0" /><rect x="600" y="680" width="20" height="20" fill="rgb(0,0,0)" opacity="1.0" /><rect x="620" y="680" width="20" height="20" fill="rgb(0,0,0)" opacity="1.0" /><polygon points="260,700 280,700 280,720 270,720" fill="rgb(0,0,0)" opacity="1.0" /><rect x="280" y="700" width="20" height="20" fill="rgb(0,0,0)" opacity="1.0" /><rect x="340" y="700" width="20" height="20" fill="rgb(0,0,0)" opacity="1.0" /><rect x="360" y="700" width="20" height="20" fill="rgb(0,0,0)" opacity="1.0" /><rect x="380" y="700" width="20" height="20" fill="rgb(0,0,0)" opacity="1.0" /><rect x="420" y="700" width="20" height="20" fill="rgb(0,0,0)" opacity="1.0" /><rect x="440" y="700" width="20" height="20" fill="rgb(0,0,0)" opacity="1.0" /><rect x="460" y="700" width="20" height="20" fill="rgb(0,0,0)" opacity="1.0" /><rect x="480" y="700" width="20" height="20" fill="rgb(0,0,0)" opacity="1.0" /><polygon points="500,700 510,700 520,720 500,720" fill="rgb(0,0,0)" opacity="1.0" /><rect x="540" y="700" width="20" height="20" fill="rgb(0,0,0)" opacity="1.0" /><rect x="560" y="700" width="20" height="20" fill="rgb(0,0,0)" opacity="1.0" /><rect x="580" y="700" width="20" height="20" fill="rgb(0,0,0)" opacity="1.0" /><polygon points="640,700 660,700 660,720 650,720" fill="rgb(0,0,0)" opacity="1.0" /><rect x="660" y="700" width="20" height="20" fill="rgb(0,0,0)" opacity="1.0" /><rect x="680" y="700" width="20" height="20" fill="rgb(0,0,0)" opacity="1.0" /><rect x="700" y="700" width="20" height="20" fill="rgb(0,0,0)" opacity="1.0" /><polygon points="720,700 730,700 740,720 720,720" fill="rgb(0,0,0)" opacity="1.0" /><rect x="240" y="720" width="20" height="20" fill="rgb(0,0,0)" opacity="1.0" /><rect x="280" y="720" width="20" height="20" fill="rgb(0,0,0)" opacity="1.0" /><rect x="300" y="720" width="20" height="20" fill="rgb(0,0,0)" opacity="1.0" /><rect x="320" y="720" width="20" height="20" fill="rgb(0,0,0)" opacity="1.0" /><rect x="340" y="720" width="20" height="20" fill="rgb(0,0,0)" opacity="1.0" /><rect x="360" y="720" width="20" height="20" fill="rgb(0,0,0)" opacity="1.0" /><rect x="380" y="720" width="20" height="20" fill="rgb(0,0,0)" opacity="1.0" /><polygon points="400,720 410,720 420,740 400,740" fill="rgb(0,0,0)" opacity="1.0" /><polygon points="440,720 460,720 460,730 440,740" fill="rgb(0,0,0)" opacity="1.0" /><polygon points="560,720 580,720 580,730 560,740" fill="rgb(0,0,0)" opacity="1.0" /><rect x="600" y="720" width="20" height="20" fill="rgb(0,0,0)" opacity="1.0" /><rect x="660" y="720" width="20" height="20" fill="rgb(0,0,0)" opacity="1.0" /><rect x="680" y="720" width="20" height="20" fill="rgb(0,0,0)" opacity="1.0" /><rect x="700" y="720" width="20" height="20" fill="rgb(0,0,0)" opacity="1.0" /><path d="M80,80 h140 v140 h-140 Z M100.0,100.0 h100.0 v100.0 h-100.0 Z" fill-rule="evenodd" fill="rgb(0,0,0)" opacity="1.0" shape-rendering="crispEdges" /><path d="M600,80 h140 v140 h-140 Z M620.0,100.0 h100.0 v100.0 h-100.0 Z" fill-rule="evenodd" fill="rgb(0,0,0)" opacity="1.0" shape-rendering="crispEdges" /><rect x="120" y="120" width="60" height="60" fill="rgb(0,0,0)" opacity="1.0" shape-rendering="crispEdges" /><rect x="640" y="120" width="60" height="60" fill="rgb(0,0,0)" opacity="1.0" shape-rendering="crispEdges" /><path d="M80,600 h140 v140 h-140 Z M100.0,620.0 h100.0 v100.0 h-100.0 Z" fill-rule="evenodd" fill="rgb(0,0,0)" opacity="1.0" shape-rendering="crispEdges" /><rect x="120" y="640" width="60" height="60" fill="rgb(0,0,0)" opacity="1.0" shape-rendering="crispEdges" /></svg></g></svg>