<?xml version="1.0" encoding="UTF-8" standalone="no"?>
<!-- Created with Inkscape (http://www.inkscape.org/) -->

<svg
   version="1.1"
   id="svg1608"
   width="202.94148"
   height="202.69545"
   sodipodi:docname="symfony.svg"
   xml:space="preserve"
   inkscape:version="1.2.2 (b0a8486541, 2022-12-01)"
   xmlns:inkscape="http://www.inkscape.org/namespaces/inkscape"
   xmlns:sodipodi="http://sodipodi.sourceforge.net/DTD/sodipodi-0.dtd"
   xmlns="http://www.w3.org/2000/svg"
   xmlns:svg="http://www.w3.org/2000/svg"><defs
     id="defs1612" /><sodipodi:namedview
     id="namedview1610"
     pagecolor="#ffffff"
     bordercolor="#666666"
     borderopacity="1.0"
     inkscape:pageshadow="2"
     inkscape:pageopacity="0.0"
     inkscape:pagecheckerboard="0"
     inkscape:showpageshadow="2"
     inkscape:deskcolor="#d1d1d1"
     showgrid="false"
     inkscape:zoom="0.34754253"
     inkscape:cx="362.54556"
     inkscape:cy="443.11124"
     inkscape:window-width="1854"
     inkscape:window-height="1011"
     inkscape:window-x="0"
     inkscape:window-y="0"
     inkscape:window-maximized="1"
     inkscape:current-layer="svg1608" /><inkscape:clipboard
     style="font-variation-settings:normal;opacity:1;vector-effect:none;fill:#561fa8;fill-opacity:1;stroke-width:0.4780001;stroke-linecap:butt;stroke-linejoin:miter;stroke-miterlimit:4;stroke-dasharray:none;stroke-dashoffset:0;stroke-opacity:1;-inkscape-stroke:none;stop-color:#000000;stop-opacity:1"
     min="-603.70934,2058.9324"
     max="774.87967,2299.0141"
     geom-min="-603.70934,2060.8794"
     geom-max="774.87967,2297.0793" /><path
     style="fill:#000000;stroke-width:0.636862"
     d="M 85.5883,201.95404 C 54.06459,196.83724 26.37248,176.87737 11.64963,148.66062 -8.9325999,109.21437 -1.7798399,61.56082 29.45109,30.0628 43.21012,16.18604 60.8852,6.4370501 79.65959,2.3694401 c 27.362,-5.92818 55.23836,-0.64501 78.4464,14.8672299 24.53461,16.39907 40.6289,42.51961 44.30857,71.91175 0.50219,4.0111 0.65344,9.98853 0.41915,16.55844 -0.57188,16.03143 -3.16358,26.2738 -10.33671,40.85068 -8.38907,17.04798 -21.23773,31.26225 -37.55395,41.5454 -4.32903,2.72829 -15.64055,8.05266 -20.69805,9.74256 -10.64731,3.55771 -16.87699,4.54466 -30.25096,4.79252 -9.07684,0.16857 -14.36625,-0.0265 -18.4057,-0.68398 z M 77.20251,173.0961 c 8.12697,-2.94191 15.73214,-8.99017 22.37027,-17.79077 9.35887,-12.40762 15.13108,-27.925 19.36324,-52.05445 0.73727,-4.20324 1.48218,-8.35879 1.65536,-9.23447 0.31256,-1.57973 0.36812,-1.59216 7.14346,-1.59216 6.97345,0 11.21964,-0.81003 15.56768,-2.96992 7.30549,-3.62887 11.0959,-10.71276 8.45979,-15.81048 -2.03901,-3.94295 -5.61335,-4.85646 -9.29476,-2.37554 -3.22617,2.17406 -3.68391,4.19334 -1.84195,8.12594 1.83998,3.92837 1.49574,4.75502 -2.8972,6.9566 -2.4731,1.23942 -4.38161,1.62361 -9.08799,1.82948 -3.27662,0.14324 -6.18603,0.008 -6.46537,-0.29518 -0.73637,-0.80568 3.40577,-20.82149 5.80815,-28.06639 2.40306,-7.24702 6.08183,-13.06602 9.97738,-15.78203 2.43568,-1.69821 3.28812,-1.92457 7.24729,-1.92457 5.76151,0 6.51496,0.85897 4.46135,5.08592 -1.73269,3.5664 -1.78163,5.76575 -0.18671,8.38178 2.09556,3.43665 7.74603,4.31834 11.37683,1.77525 3.3526,-2.34826 4.4939,-8.65958 2.25653,-12.47826 -2.53398,-4.32492 -9.15054,-7.54114 -15.51386,-7.54114 -15.93778,0 -31.38025,13.48539 -40.54507,35.4065 -1.67014,3.99481 -3.19718,7.26327 -3.39338,7.26327 -0.19615,0 -2.35162,-1.80904 -4.78975,-4.02017 -9.56466,-8.67394 -14.49128,-10.90092 -24.17571,-10.92817 -5.83748,-0.0189 -6.72042,0.14854 -10.58684,1.9807 -5.62348,2.66446 -9.04316,5.88541 -11.45934,10.79327 -1.86432,3.78701 -1.97869,4.4126 -1.71719,9.39417 0.36775,7.00755 2.15498,10.63952 9.03852,18.36846 6.17726,6.93585 6.76486,7.90473 6.76172,11.1487 -0.008,6.79154 -7.75608,11.35321 -15.05937,8.86469 -3.14064,-1.0701 -5.95473,-3.23063 -5.95473,-4.57176 0,-0.4295 0.71365,-2.31409 1.58589,-4.18783 1.85379,-3.98214 1.98482,-6.05601 0.57007,-9.02279 -2.14382,-4.49563 -8.36047,-5.79118 -11.71106,-2.44059 -4.93402,4.93402 -2.29678,15.07102 5.26315,20.23041 5.75456,3.92731 9.45732,4.9547 17.9845,4.98993 7.25923,0.0302 7.84985,-0.0673 11.78192,-1.93924 11.30306,-5.38122 15.86389,-16.72494 10.79929,-26.86008 -1.57433,-3.15057 -7.68669,-11.02476 -11.90155,-15.33214 -4.37979,-4.47606 -3.00986,-12.31566 2.61891,-14.98669 6.38767,-3.03111 14.98322,0.34015 25.39193,9.9592 4.25529,3.93237 4.2932,3.99693 3.64947,6.20255 -1.46517,5.01925 -4.48422,18.89377 -6.65189,30.56915 -4.76266,25.65263 -8.70168,37.63279 -14.843,45.1435 -4.03536,4.93524 -11.33839,8.58826 -14.15539,7.08065 -1.9183,-1.02667 -1.55376,-2.48852 1.27109,-5.09636 2.13683,-1.97268 2.54706,-2.75247 2.54506,-4.83783 -0.004,-4.91962 -3.78123,-8.53625 -8.91371,-8.53625 -3.05526,0 -5.39433,1.09088 -7.73001,3.60506 -1.94475,2.09345 -2.52612,3.69612 -2.57302,7.09312 -0.0669,4.85095 3.32455,9.18058 8.84266,11.28892 3.51156,1.34166 12.82582,0.88698 17.65716,-0.86192 z"
     id="path20330-8"
     sodipodi:nodetypes="csssssssssscssssssssssscssssssssssscsssssssssssscssssssssssssssss"
     inkscape:export-filename="/home/simon/Projets/makina-tools/DbToolsBundle/anonymize-your-data-slides/assets/db-tools-bundle-symfony.png"
     inkscape:export-xdpi="212.89"
     inkscape:export-ydpi="212.89" /></svg>
